<?xml version="1.0" encoding="UTF-8" standalone="no"?><svg xmlns="http://www.w3.org/2000/svg" xmlns:xlink="http://www.w3.org/1999/xlink" contentStyleType="text/css" height="383px" preserveAspectRatio="none" style="width:241px;height:383px;background:#FFFFFF;" version="1.1" viewBox="0 0 241 383" width="241px" zoomAndPan="magnify"><defs/><g><ellipse cx="67.5" cy="48.4961" fill="#222222" rx="10" ry="10" style="stroke:#222222;stroke-width:1.0;"/><rect fill="#F1F1F1" height="34.1328" rx="12.5" ry="12.5" style="stroke:#181818;stroke-width:0.5;" width="46" x="44.5" y="78.4961"/><text fill="#000000" font-family="sans-serif" font-size="12" lengthAdjust="spacing" textLength="26" x="54.5" y="100.0977">foo1</text><rect fill="#F1F1F1" height="34.1328" rx="12.5" ry="12.5" style="stroke:#181818;stroke-width:0.5;" width="46" x="44.5" y="240.8945"/><text fill="#000000" font-family="sans-serif" font-size="12" lengthAdjust="spacing" textLength="26" x="54.5" y="262.4961">foo4</text><line style="stroke:#000000;stroke-width:1.5;" x1="15" x2="15" y1="12.2969" y2="371.1602"/><rect fill="#FAEBD7" height="358.8633" style="stroke:#FAEBD7;stroke-width:1.0;" width="103" x="118" y="12.2969"/><rect fill="#F1F1F1" height="34.1328" rx="12.5" ry="12.5" style="stroke:#181818;stroke-width:0.5;" width="46" x="147.5" y="132.6289"/><text fill="#000000" font-family="sans-serif" font-size="12" lengthAdjust="spacing" textLength="26" x="157.5" y="154.2305">foo2</text><rect fill="#F1F1F1" height="34.1328" rx="12.5" ry="12.5" style="stroke:#181818;stroke-width:0.5;" width="46" x="147.5" y="186.7617"/><text fill="#000000" font-family="sans-serif" font-size="12" lengthAdjust="spacing" textLength="26" x="157.5" y="208.3633">foo3</text><rect fill="#F1F1F1" height="34.1328" rx="12.5" ry="12.5" style="stroke:#181818;stroke-width:0.5;" width="46" x="147.5" y="295.0273"/><text fill="#000000" font-family="sans-serif" font-size="12" lengthAdjust="spacing" textLength="26" x="157.5" y="316.6289">foo5</text><ellipse cx="170.5" cy="360.1602" rx="11" ry="11" style="stroke:#222222;stroke-width:1.0;fill:none;"/><ellipse cx="170.5" cy="360.1602" fill="#222222" rx="6" ry="6" style="stroke:#111111;stroke-width:1.0;"/><line style="stroke:#000000;stroke-width:1.5;" x1="118" x2="118" y1="12.2969" y2="371.1602"/><line style="stroke:#000000;stroke-width:1.5;" x1="221" x2="221" y1="12.2969" y2="371.1602"/><line style="stroke:#181818;stroke-width:1.0;" x1="67.5" x2="67.5" y1="58.4961" y2="78.4961"/><polygon fill="#181818" points="63.5,68.4961,67.5,78.4961,71.5,68.4961,67.5,72.4961" style="stroke:#181818;stroke-width:1.0;"/><line style="stroke:#181818;stroke-width:1.0;" x1="170.5" x2="170.5" y1="166.7617" y2="186.7617"/><polygon fill="#181818" points="166.5,176.7617,170.5,186.7617,174.5,176.7617,170.5,180.7617" style="stroke:#181818;stroke-width:1.0;"/><line style="stroke:#181818;stroke-width:1.0;" x1="170.5" x2="170.5" y1="329.1602" y2="349.1602"/><polygon fill="#181818" points="166.5,339.1602,170.5,349.1602,174.5,339.1602,170.5,343.1602" style="stroke:#181818;stroke-width:1.0;"/><line style="stroke:#181818;stroke-width:1.0;" x1="67.5" x2="67.5" y1="112.6289" y2="117.6289"/><line style="stroke:#181818;stroke-width:1.0;" x1="67.5" x2="170.5" y1="117.6289" y2="117.6289"/><line style="stroke:#181818;stroke-width:1.0;" x1="170.5" x2="170.5" y1="117.6289" y2="132.6289"/><polygon fill="#181818" points="166.5,122.6289,170.5,132.6289,174.5,122.6289,170.5,126.6289" style="stroke:#181818;stroke-width:1.0;"/><line style="stroke:#181818;stroke-width:1.0;" x1="170.5" x2="170.5" y1="220.8945" y2="225.8945"/><line style="stroke:#181818;stroke-width:1.0;" x1="170.5" x2="67.5" y1="225.8945" y2="225.8945"/><line style="stroke:#181818;stroke-width:1.0;" x1="67.5" x2="67.5" y1="225.8945" y2="240.8945"/><polygon fill="#181818" points="63.5,230.8945,67.5,240.8945,71.5,230.8945,67.5,234.8945" style="stroke:#181818;stroke-width:1.0;"/><line style="stroke:#181818;stroke-width:1.0;" x1="67.5" x2="67.5" y1="275.0273" y2="280.0273"/><line style="stroke:#181818;stroke-width:1.0;" x1="67.5" x2="170.5" y1="280.0273" y2="280.0273"/><line style="stroke:#181818;stroke-width:1.0;" x1="170.5" x2="170.5" y1="280.0273" y2="295.0273"/><polygon fill="#181818" points="166.5,285.0273,170.5,295.0273,174.5,285.0273,170.5,289.0273" style="stroke:#181818;stroke-width:1.0;"/><text fill="#000000" font-family="sans-serif" font-size="18" lengthAdjust="spacing" textLength="93" x="20" y="29.6992">Swimlane1</text><text fill="#000000" font-family="sans-serif" font-size="18" lengthAdjust="spacing" textLength="93" x="123" y="29.6992">Swimlane2</text><!--MD5=[3a3373b96da36d62e2a38d80a6eb48af]
@startuml
|Swimlane1|
start
:foo1;
|#AntiqueWhite|Swimlane2|
:foo2;
:foo3;
|Swimlane1|
:foo4;
|Swimlane2|
:foo5;
stop
@enduml

PlantUML version 1.2022.2(Sat Mar 05 17:30:19 CET 2022)
(GPL source distribution)
Java Runtime: OpenJDK Runtime Environment
JVM: OpenJDK 64-Bit Server VM
Default Encoding: UTF-8
Language: en
Country: HU
--></g></svg>