<?xml version="1.0" encoding="UTF-8" standalone="no"?><svg xmlns="http://www.w3.org/2000/svg" xmlns:xlink="http://www.w3.org/1999/xlink" contentStyleType="text/css" height="1086px" preserveAspectRatio="none" style="width:1121px;height:1086px;background:#FFFFFF;" version="1.1" viewBox="0 0 1121 1086" width="1121px" zoomAndPan="magnify"><defs/><g><rect height="26.4883" rx="5" ry="5" style="stroke:#000000;stroke-width:3.0;fill:none;" width="110" x="504" y="15"/><text fill="#000000" font-family="sans-serif" font-size="14" font-weight="bold" lengthAdjust="spacing" textLength="100" x="509" y="33.5352">Create a topic</text><ellipse cx="185" cy="85.9844" fill="#222222" rx="10" ry="10" style="stroke:#222222;stroke-width:1.0;"/><rect fill="#F1F1F1" height="34.1328" rx="12.5" ry="12.5" style="stroke:#181818;stroke-width:0.5;" width="242" x="64" y="115.9844"/><text fill="#000000" font-family="sans-serif" font-size="12" lengthAdjust="spacing" textLength="222" x="74" y="137.5859">The user clicks the "New Topic" button</text><rect fill="#555555" height="6" rx="2.5" ry="2.5" style="stroke:#555555;stroke-width:1.0;" width="328" x="21" y="278.3828"/><rect fill="#F1F1F1" height="34.1328" rx="12.5" ry="12.5" style="stroke:#181818;stroke-width:0.5;" width="122" x="33" y="304.3828"/><text fill="#000000" font-family="sans-serif" font-size="12" lengthAdjust="spacing" textLength="102" x="43" y="325.9844">Fill out name field</text><rect fill="#F1F1F1" height="34.1328" rx="12.5" ry="12.5" style="stroke:#181818;stroke-width:0.5;" width="154" x="183" y="304.3828"/><text fill="#000000" font-family="sans-serif" font-size="12" lengthAdjust="spacing" textLength="134" x="193" y="325.9844">Fill out description field</text><rect fill="#555555" height="6" rx="2.5" ry="2.5" style="stroke:#555555;stroke-width:1.0;" width="328" x="21" y="358.5156"/><rect fill="#F1F1F1" height="48.2656" rx="12.5" ry="12.5" style="stroke:#181818;stroke-width:0.5;" width="120" x="125" y="384.5156"/><text fill="#000000" font-family="sans-serif" font-size="12" lengthAdjust="spacing" textLength="100" x="135" y="406.1172">The user submits</text><text fill="#000000" font-family="sans-serif" font-size="12" lengthAdjust="spacing" textLength="58" x="135" y="420.25">the values</text><rect fill="#F1F1F1" height="34.1328" rx="12.5" ry="12.5" style="stroke:#181818;stroke-width:0.5;" width="150" x="110" y="224.25"/><text fill="#000000" font-family="sans-serif" font-size="12" lengthAdjust="spacing" textLength="126" x="124" y="245.8516">Enter topic properties</text><rect fill="#F1F1F1" height="48.2656" rx="12.5" ry="12.5" style="stroke:#181818;stroke-width:0.5;" width="168" x="101" y="984.5566"/><text fill="#000000" font-family="sans-serif" font-size="12" lengthAdjust="spacing" textLength="103" x="111" y="1006.1582">The user sees the</text><text fill="#000000" font-family="sans-serif" font-size="12" lengthAdjust="spacing" textLength="148" x="111" y="1020.291">new topic page displayed</text><ellipse cx="185" cy="1063.8223" rx="11" ry="11" style="stroke:#222222;stroke-width:1.0;fill:none;"/><ellipse cx="185" cy="1063.8223" fill="#222222" rx="6" ry="6" style="stroke:#111111;stroke-width:1.0;"/><line style="stroke:#000000;stroke-width:1.5;" x1="15" x2="15" y1="49.7852" y2="1074.8223"/><rect fill="#F1F1F1" height="34.1328" rx="12.5" ry="12.5" style="stroke:#181818;stroke-width:0.5;" width="157" x="629.5" y="170.1172"/><text fill="#000000" font-family="sans-serif" font-size="12" lengthAdjust="spacing" textLength="137" x="639.5" y="191.7188">Display a topic skeleton</text><rect fill="none" height="264.7539" style="stroke:#000000;stroke-width:1.5;" width="578" x="359" y="442.7813"/><path d="M476,442.7813 L476,452.2695 L466,462.2695 L359,462.2695 " fill="none" style="stroke:#000000;stroke-width:1.5;"/><text fill="#000000" font-family="sans-serif" font-size="14" lengthAdjust="spacing" textLength="107" x="362" y="457.3164">Input validation</text><polygon fill="#F1F1F1" points="656,479.2695,760,479.2695,772,491.2695,760,503.2695,656,503.2695,644,491.2695,656,479.2695" style="stroke:#181818;stroke-width:0.5;"/><text fill="#000000" font-family="sans-serif" font-size="11" lengthAdjust="spacing" textLength="104" x="656" y="495.4268">Name is not empty?</text><text fill="#000000" font-family="sans-serif" font-size="11" lengthAdjust="spacing" textLength="18" x="626" y="488.9492">yes</text><text fill="#000000" font-family="sans-serif" font-size="11" lengthAdjust="spacing" textLength="14" x="772" y="488.9492">no</text><polygon fill="#F1F1F1" points="496,513.2695,632,513.2695,644,525.2695,632,537.2695,496,537.2695,484,525.2695,496,513.2695" style="stroke:#181818;stroke-width:0.5;"/><text fill="#000000" font-family="sans-serif" font-size="11" lengthAdjust="spacing" textLength="136" x="496" y="529.4268">Description is not empty?</text><text fill="#000000" font-family="sans-serif" font-size="11" lengthAdjust="spacing" textLength="18" x="466" y="522.9492">yes</text><text fill="#000000" font-family="sans-serif" font-size="11" lengthAdjust="spacing" textLength="14" x="644" y="522.9492">no</text><rect fill="#F1F1F1" height="34.1328" rx="12.5" ry="12.5" style="stroke:#181818;stroke-width:0.5;" width="187" x="371" y="547.2695"/><text fill="#000000" font-family="sans-serif" font-size="12" lengthAdjust="spacing" textLength="167" x="381" y="568.8711">Use the specified description</text><rect fill="#F1F1F1" height="34.1328" rx="12.5" ry="12.5" style="stroke:#181818;stroke-width:0.5;" width="171" x="578" y="547.2695"/><text fill="#000000" font-family="sans-serif" font-size="12" lengthAdjust="spacing" textLength="151" x="588" y="568.8711">Use the empty description</text><polygon fill="#F1F1F1" points="564,587.4023,576,599.4023,564,611.4023,552,599.4023,564,587.4023" style="stroke:#181818;stroke-width:0.5;"/><rect fill="#F1F1F1" height="34.1328" rx="12.5" ry="12.5" style="stroke:#181818;stroke-width:0.5;" width="162" x="483" y="631.4023"/><text fill="#000000" font-family="sans-serif" font-size="12" lengthAdjust="spacing" textLength="142" x="493" y="653.0039">Display loading indicator</text><rect fill="#F1F1F1" height="34.1328" rx="12.5" ry="12.5" style="stroke:#181818;stroke-width:0.5;" width="146" x="779" y="513.2695"/><text fill="#000000" font-family="sans-serif" font-size="12" lengthAdjust="spacing" textLength="126" x="789" y="534.8711">Create error message</text><polygon fill="#F1F1F1" points="708,671.5352,720,683.5352,708,695.5352,696,683.5352,708,671.5352" style="stroke:#181818;stroke-width:0.5;"/><polygon fill="#F1F1F1" points="637,727.5352,779,727.5352,791,739.5352,779,751.5352,637,751.5352,625,739.5352,637,727.5352" style="stroke:#181818;stroke-width:0.5;"/><text fill="#000000" font-family="sans-serif" font-size="11" lengthAdjust="spacing" textLength="18" x="712" y="762.1699">yes</text><text fill="#000000" font-family="sans-serif" font-size="11" lengthAdjust="spacing" textLength="142" x="637" y="743.6924">Topic creation successful?</text><text fill="#000000" font-family="sans-serif" font-size="11" lengthAdjust="spacing" textLength="14" x="791" y="737.2148">no</text><rect fill="#F1F1F1" height="34.1328" rx="12.5" ry="12.5" style="stroke:#181818;stroke-width:0.5;" width="150" x="947" y="462.3262"/><text fill="#000000" font-family="sans-serif" font-size="12" lengthAdjust="spacing" textLength="130" x="957" y="483.9277">Display error message</text><rect fill="none" height="136.7539" style="stroke:#000000;stroke-width:1.5;" width="187" x="614.5" y="773.6699"/><path d="M707.5,773.6699 L707.5,783.1582 L697.5,793.1582 L614.5,793.1582 " fill="none" style="stroke:#000000;stroke-width:1.5;"/><text fill="#000000" font-family="sans-serif" font-size="14" lengthAdjust="spacing" textLength="83" x="617.5" y="788.2051">Persist topic</text><rect fill="#F1F1F1" height="34.1328" rx="12.5" ry="12.5" style="stroke:#181818;stroke-width:0.5;" width="152" x="632" y="810.1582"/><text fill="#000000" font-family="sans-serif" font-size="12" lengthAdjust="spacing" textLength="132" x="642" y="831.7598">Auto-generate topic ID</text><rect fill="#F1F1F1" height="34.1328" rx="12.5" ry="12.5" style="stroke:#181818;stroke-width:0.5;" width="167" x="624.5" y="864.291"/><text fill="#000000" font-family="sans-serif" font-size="12" lengthAdjust="spacing" textLength="147" x="634.5" y="885.8926">Insert topic into database</text><rect fill="#F1F1F1" height="34.1328" rx="12.5" ry="12.5" style="stroke:#181818;stroke-width:0.5;" width="250" x="583" y="930.4238"/><text fill="#000000" font-family="sans-serif" font-size="12" lengthAdjust="spacing" textLength="230" x="593" y="952.0254">Render the new topic on the dashboard</text><line style="stroke:#000000;stroke-width:1.5;" x1="353" x2="353" y1="49.7852" y2="1074.8223"/><line style="stroke:#000000;stroke-width:1.5;" x1="1101" x2="1101" y1="49.7852" y2="1074.8223"/><line style="stroke:#181818;stroke-width:1.0;" x1="185" x2="185" y1="95.9844" y2="115.9844"/><polygon fill="#181818" points="181,105.9844,185,115.9844,189,105.9844,185,109.9844" style="stroke:#181818;stroke-width:1.0;"/><line style="stroke:#181818;stroke-width:1.0;" x1="94" x2="94" y1="284.3828" y2="304.3828"/><polygon fill="#181818" points="90,294.3828,94,304.3828,98,294.3828,94,298.3828" style="stroke:#181818;stroke-width:1.0;"/><line style="stroke:#181818;stroke-width:1.0;" x1="260" x2="260" y1="284.3828" y2="304.3828"/><polygon fill="#181818" points="256,294.3828,260,304.3828,264,294.3828,260,298.3828" style="stroke:#181818;stroke-width:1.0;"/><line style="stroke:#181818;stroke-width:1.0;" x1="94" x2="94" y1="338.5156" y2="358.5156"/><polygon fill="#181818" points="90,348.5156,94,358.5156,98,348.5156,94,352.5156" style="stroke:#181818;stroke-width:1.0;"/><line style="stroke:#181818;stroke-width:1.0;" x1="260" x2="260" y1="338.5156" y2="358.5156"/><polygon fill="#181818" points="256,348.5156,260,358.5156,264,348.5156,260,352.5156" style="stroke:#181818;stroke-width:1.0;"/><line style="stroke:#181818;stroke-width:1.0;" x1="185" x2="185" y1="364.5156" y2="384.5156"/><polygon fill="#181818" points="181,374.5156,185,384.5156,189,374.5156,185,378.5156" style="stroke:#181818;stroke-width:1.0;"/><line style="stroke:#181818;stroke-width:1.0;" x1="185" x2="185" y1="258.3828" y2="278.3828"/><polygon fill="#181818" points="181,268.3828,185,278.3828,189,268.3828,185,272.3828" style="stroke:#181818;stroke-width:1.0;"/><line style="stroke:#181818;stroke-width:1.0;" x1="185" x2="185" y1="1032.8223" y2="1052.8223"/><polygon fill="#181818" points="181,1042.8223,185,1052.8223,189,1042.8223,185,1046.8223" style="stroke:#181818;stroke-width:1.0;"/><line style="stroke:#181818;stroke-width:1.0;" x1="484" x2="464.5" y1="525.2695" y2="525.2695"/><line style="stroke:#181818;stroke-width:1.0;" x1="464.5" x2="464.5" y1="525.2695" y2="547.2695"/><polygon fill="#181818" points="460.5,537.2695,464.5,547.2695,468.5,537.2695,464.5,541.2695" style="stroke:#181818;stroke-width:1.0;"/><line style="stroke:#181818;stroke-width:1.0;" x1="644" x2="663.5" y1="525.2695" y2="525.2695"/><line style="stroke:#181818;stroke-width:1.0;" x1="663.5" x2="663.5" y1="525.2695" y2="547.2695"/><polygon fill="#181818" points="659.5,537.2695,663.5,547.2695,667.5,537.2695,663.5,541.2695" style="stroke:#181818;stroke-width:1.0;"/><line style="stroke:#181818;stroke-width:1.0;" x1="464.5" x2="464.5" y1="581.4023" y2="599.4023"/><line style="stroke:#181818;stroke-width:1.0;" x1="464.5" x2="552" y1="599.4023" y2="599.4023"/><polygon fill="#181818" points="542,595.4023,552,599.4023,542,603.4023,546,599.4023" style="stroke:#181818;stroke-width:1.0;"/><line style="stroke:#181818;stroke-width:1.0;" x1="663.5" x2="663.5" y1="581.4023" y2="599.4023"/><line style="stroke:#181818;stroke-width:1.0;" x1="663.5" x2="576" y1="599.4023" y2="599.4023"/><polygon fill="#181818" points="586,595.4023,576,599.4023,586,603.4023,582,599.4023" style="stroke:#181818;stroke-width:1.0;"/><line style="stroke:#181818;stroke-width:1.0;" x1="564" x2="564" y1="611.4023" y2="631.4023"/><polygon fill="#181818" points="560,621.4023,564,631.4023,568,621.4023,564,625.4023" style="stroke:#181818;stroke-width:1.0;"/><line style="stroke:#181818;stroke-width:1.0;" x1="644" x2="564" y1="491.2695" y2="491.2695"/><line style="stroke:#181818;stroke-width:1.0;" x1="564" x2="564" y1="491.2695" y2="513.2695"/><polygon fill="#181818" points="560,503.2695,564,513.2695,568,503.2695,564,507.2695" style="stroke:#181818;stroke-width:1.0;"/><line style="stroke:#181818;stroke-width:1.0;" x1="772" x2="852" y1="491.2695" y2="491.2695"/><line style="stroke:#181818;stroke-width:1.0;" x1="852" x2="852" y1="491.2695" y2="513.2695"/><polygon fill="#181818" points="848,503.2695,852,513.2695,856,503.2695,852,507.2695" style="stroke:#181818;stroke-width:1.0;"/><line style="stroke:#181818;stroke-width:1.0;" x1="564" x2="564" y1="665.5352" y2="683.5352"/><line style="stroke:#181818;stroke-width:1.0;" x1="564" x2="696" y1="683.5352" y2="683.5352"/><polygon fill="#181818" points="686,679.5352,696,683.5352,686,687.5352,690,683.5352" style="stroke:#181818;stroke-width:1.0;"/><line style="stroke:#181818;stroke-width:1.0;" x1="852" x2="852" y1="547.4023" y2="683.5352"/><line style="stroke:#181818;stroke-width:1.0;" x1="852" x2="720" y1="683.5352" y2="683.5352"/><polygon fill="#181818" points="730,679.5352,720,683.5352,730,687.5352,726,683.5352" style="stroke:#181818;stroke-width:1.0;"/><line style="stroke:#181818;stroke-width:1.0;" x1="791" x2="1022" y1="739.5352" y2="739.5352"/><line style="stroke:#181818;stroke-width:1.0;" x1="1022" x2="1022" y1="496.459" y2="739.5352"/><polygon fill="#181818" points="1018,506.459,1022,496.459,1026,506.459,1022,502.459" style="stroke:#181818;stroke-width:1.0;"/><line style="stroke:#181818;stroke-width:1.0;" x1="708" x2="708" y1="695.5352" y2="727.5352"/><polygon fill="#181818" points="704,717.5352,708,727.5352,712,717.5352,708,721.5352" style="stroke:#181818;stroke-width:1.0;"/><line style="stroke:#181818;stroke-width:1.0;" x1="708" x2="708" y1="844.291" y2="864.291"/><polygon fill="#181818" points="704,854.291,708,864.291,712,854.291,708,858.291" style="stroke:#181818;stroke-width:1.0;"/><line style="stroke:#181818;stroke-width:1.0;" x1="708" x2="708" y1="751.5352" y2="810.1582"/><polygon fill="#181818" points="704,800.1582,708,810.1582,712,800.1582,708,804.1582" style="stroke:#181818;stroke-width:1.0;"/><line style="stroke:#181818;stroke-width:1.0;" x1="708" x2="708" y1="898.4238" y2="930.4238"/><polygon fill="#181818" points="704,920.4238,708,930.4238,712,920.4238,708,924.4238" style="stroke:#181818;stroke-width:1.0;"/><line style="stroke:#181818;stroke-width:1.0;" x1="185" x2="185" y1="150.1172" y2="155.1172"/><line style="stroke:#181818;stroke-width:1.0;" x1="185" x2="708" y1="155.1172" y2="155.1172"/><line style="stroke:#181818;stroke-width:1.0;" x1="708" x2="708" y1="155.1172" y2="170.1172"/><polygon fill="#181818" points="704,160.1172,708,170.1172,712,160.1172,708,164.1172" style="stroke:#181818;stroke-width:1.0;"/><line style="stroke:#181818;stroke-width:1.0;" x1="185" x2="185" y1="432.7813" y2="443.5254"/><line style="stroke:#181818;stroke-width:1.0;" x1="185" x2="708" y1="443.5254" y2="443.5254"/><line style="stroke:#181818;stroke-width:1.0;" x1="708" x2="708" y1="443.5254" y2="479.2695"/><polygon fill="#181818" points="704,469.2695,708,479.2695,712,469.2695,708,473.2695" style="stroke:#181818;stroke-width:1.0;"/><line style="stroke:#181818;stroke-width:1.0;" x1="1022" x2="1022" y1="241.3164" y2="462.3262"/><line style="stroke:#181818;stroke-width:1.0;" x1="1022" x2="260" y1="241.3164" y2="241.3164"/><polygon fill="#181818" points="270,237.3164,260,241.3164,270,245.3164,266,241.3164" style="stroke:#181818;stroke-width:1.0;"/><line style="stroke:#181818;stroke-width:1.0;" x1="708" x2="708" y1="204.25" y2="209.25"/><line style="stroke:#181818;stroke-width:1.0;" x1="708" x2="185" y1="209.25" y2="209.25"/><line style="stroke:#181818;stroke-width:1.0;" x1="185" x2="185" y1="209.25" y2="224.25"/><polygon fill="#181818" points="181,214.25,185,224.25,189,214.25,185,218.25" style="stroke:#181818;stroke-width:1.0;"/><line style="stroke:#181818;stroke-width:1.0;" x1="708" x2="708" y1="964.5566" y2="969.5566"/><line style="stroke:#181818;stroke-width:1.0;" x1="708" x2="185" y1="969.5566" y2="969.5566"/><line style="stroke:#181818;stroke-width:1.0;" x1="185" x2="185" y1="969.5566" y2="984.5566"/><polygon fill="#181818" points="181,974.5566,185,984.5566,189,974.5566,185,978.5566" style="stroke:#181818;stroke-width:1.0;"/><text fill="#000000" font-family="sans-serif" font-size="18" lengthAdjust="spacing" textLength="38" x="165" y="67.1875">User</text><text fill="#000000" font-family="sans-serif" font-size="18" lengthAdjust="spacing" textLength="34" x="710" y="67.1875">App</text><!--MD5=[9ab33fc40e3b6a94bdd84f9881ca42bf]
@startuml
skinparam titleBorderRoundCorner 10
skinparam titleBorderThickness 3
skinparam titleBorderColor black
title Create a topic

|User|
start
:The user clicks the "New Topic" button;
|App|
:Display a topic skeleton;
|User|
repeat: Enter topic properties;
fork
  :Fill out name field;
fork again
  :Fill out description field;
end fork
:The user submits 
the values;
|App|
partition "Input validation" {
    if (Name is not empty?) then (yes)
        if (Description is not empty?) then (yes)
            :Use the specified description;
        else (no)
            :Use the empty description;
        endif
        :Display loading indicator;
    else (no)
        :Create error message;
    endif
}
backward :Display error message;
repeat while (Topic creation successful?) is (no) not (yes)
partition "Persist topic" {
    :Auto-generate topic ID;
    :Insert topic into database;
}
:Render the new topic on the dashboard;
|User|
:The user sees the 
new topic page displayed;
stop
@enduml

PlantUML version 1.2022.2(Sat Mar 05 17:30:19 CET 2022)
(GPL source distribution)
Java Runtime: OpenJDK Runtime Environment
JVM: OpenJDK 64-Bit Server VM
Default Encoding: UTF-8
Language: en
Country: HU
--></g></svg>