<?xml version="1.0" encoding="UTF-8" standalone="no"?><svg xmlns="http://www.w3.org/2000/svg" xmlns:xlink="http://www.w3.org/1999/xlink" contentStyleType="text/css" height="915px" preserveAspectRatio="none" style="width:1167px;height:915px;background:#FFFFFF;" version="1.1" viewBox="0 0 1167 915" width="1167px" zoomAndPan="magnify"><defs/><g><rect height="26.4883" rx="5" ry="5" style="stroke:#000000;stroke-width:3.0;fill:none;" width="101" x="531.5" y="15"/><text fill="#000000" font-family="sans-serif" font-size="14" font-weight="bold" lengthAdjust="spacing" textLength="91" x="536.5" y="33.5352">User Sign-in</text><ellipse cx="193.5" cy="85.9844" fill="#222222" rx="10" ry="10" style="stroke:#222222;stroke-width:1.0;"/><rect fill="#F1F1F1" height="48.2656" rx="12.5" ry="12.5" style="stroke:#181818;stroke-width:0.5;" width="110" x="138.5" y="115.9844"/><text fill="#000000" font-family="sans-serif" font-size="12" lengthAdjust="spacing" textLength="90" x="148.5" y="137.5859">The user opens</text><text fill="#000000" font-family="sans-serif" font-size="12" lengthAdjust="spacing" textLength="73" x="148.5" y="151.7188">the web app</text><rect fill="#F1F1F1" height="48.2656" rx="12.5" ry="12.5" style="stroke:#181818;stroke-width:0.5;" width="138" x="124.5" y="184.25"/><text fill="#000000" font-family="sans-serif" font-size="12" lengthAdjust="spacing" textLength="109" x="134.5" y="205.8516">The user navigates</text><text fill="#000000" font-family="sans-serif" font-size="12" lengthAdjust="spacing" textLength="118" x="134.5" y="219.9844">to the "sign-in" page</text><rect fill="#555555" height="6" rx="2.5" ry="2.5" style="stroke:#555555;stroke-width:1.0;" width="345" x="21" y="306.6484"/><rect fill="#F1F1F1" height="34.1328" rx="12.5" ry="12.5" style="stroke:#181818;stroke-width:0.5;" width="147" x="33" y="332.6484"/><text fill="#000000" font-family="sans-serif" font-size="12" lengthAdjust="spacing" textLength="127" x="43" y="354.25">Fill out username field</text><rect fill="#F1F1F1" height="34.1328" rx="12.5" ry="12.5" style="stroke:#181818;stroke-width:0.5;" width="146" x="208" y="332.6484"/><text fill="#000000" font-family="sans-serif" font-size="12" lengthAdjust="spacing" textLength="126" x="218" y="354.25">Fill out password field</text><rect fill="#555555" height="6" rx="2.5" ry="2.5" style="stroke:#555555;stroke-width:1.0;" width="345" x="21" y="386.7813"/><rect fill="#F1F1F1" height="48.2656" rx="12.5" ry="12.5" style="stroke:#181818;stroke-width:0.5;" width="120" x="133.5" y="412.7813"/><text fill="#000000" font-family="sans-serif" font-size="12" lengthAdjust="spacing" textLength="100" x="143.5" y="434.3828">The user submits</text><text fill="#000000" font-family="sans-serif" font-size="12" lengthAdjust="spacing" textLength="89" x="143.5" y="448.5156">the form values</text><rect fill="#F1F1F1" height="34.1328" rx="12.5" ry="12.5" style="stroke:#181818;stroke-width:0.5;" width="136" x="125.5" y="252.5156"/><text fill="#000000" font-family="sans-serif" font-size="12" lengthAdjust="spacing" textLength="112" x="139.5" y="274.1172">Fill out sign-in form</text><rect fill="#F1F1F1" height="34.1328" rx="12.5" ry="12.5" style="stroke:#181818;stroke-width:0.5;" width="227" x="80" y="826.957"/><text fill="#000000" font-family="sans-serif" font-size="12" lengthAdjust="spacing" textLength="207" x="90" y="848.5586">User is redirected to the dashboard</text><ellipse cx="193.5" cy="892.0898" rx="11" ry="11" style="stroke:#222222;stroke-width:1.0;fill:none;"/><ellipse cx="193.5" cy="892.0898" fill="#222222" rx="6" ry="6" style="stroke:#111111;stroke-width:1.0;"/><line style="stroke:#000000;stroke-width:1.5;" x1="15" x2="15" y1="49.7852" y2="903.0898"/><rect fill="none" height="210.6211" style="stroke:#000000;stroke-width:1.5;" width="607" x="376" y="486.0684"/><path d="M528,486.0684 L528,495.5566 L518,505.5566 L376,505.5566 " fill="none" style="stroke:#000000;stroke-width:1.5;"/><text fill="#000000" font-family="sans-serif" font-size="14" lengthAdjust="spacing" textLength="142" x="379" y="500.6035">Credential validation</text><polygon fill="#F1F1F1" points="699.75,522.5566,793.75,522.5566,805.75,534.5566,793.75,546.5566,699.75,546.5566,687.75,534.5566,699.75,522.5566" style="stroke:#181818;stroke-width:0.5;"/><text fill="#000000" font-family="sans-serif" font-size="11" lengthAdjust="spacing" textLength="94" x="699.75" y="538.7139">Username exists?</text><text fill="#000000" font-family="sans-serif" font-size="11" lengthAdjust="spacing" textLength="18" x="669.75" y="532.2363">yes</text><text fill="#000000" font-family="sans-serif" font-size="11" lengthAdjust="spacing" textLength="14" x="805.75" y="532.2363">no</text><polygon fill="#F1F1F1" points="491,556.5566,700,556.5566,712,568.5566,700,580.5566,491,580.5566,479,568.5566,491,556.5566" style="stroke:#181818;stroke-width:0.5;"/><text fill="#000000" font-family="sans-serif" font-size="11" lengthAdjust="spacing" textLength="209" x="491" y="572.7139">Password hash matches the username?</text><text fill="#000000" font-family="sans-serif" font-size="11" lengthAdjust="spacing" textLength="18" x="461" y="566.2363">yes</text><text fill="#000000" font-family="sans-serif" font-size="11" lengthAdjust="spacing" textLength="14" x="712" y="566.2363">no</text><rect fill="#F1F1F1" height="34.1328" rx="12.5" ry="12.5" style="stroke:#181818;stroke-width:0.5;" width="162" x="388" y="590.5566"/><text fill="#000000" font-family="sans-serif" font-size="12" lengthAdjust="spacing" textLength="142" x="398" y="612.1582">Display loading indicator</text><rect fill="#F1F1F1" height="34.1328" rx="12.5" ry="12.5" style="stroke:#181818;stroke-width:0.5;" width="146" x="649" y="590.5566"/><text fill="#000000" font-family="sans-serif" font-size="12" lengthAdjust="spacing" textLength="126" x="659" y="612.1582">Create error message</text><polygon fill="#F1F1F1" points="595.5,630.6895,607.5,642.6895,595.5,654.6895,583.5,642.6895,595.5,630.6895" style="stroke:#181818;stroke-width:0.5;"/><rect fill="#F1F1F1" height="34.1328" rx="12.5" ry="12.5" style="stroke:#181818;stroke-width:0.5;" width="146" x="825" y="556.5566"/><text fill="#000000" font-family="sans-serif" font-size="12" lengthAdjust="spacing" textLength="126" x="835" y="578.1582">Create error message</text><polygon fill="#F1F1F1" points="746.75,660.6895,758.75,672.6895,746.75,684.6895,734.75,672.6895,746.75,660.6895" style="stroke:#181818;stroke-width:0.5;"/><polygon fill="#F1F1F1" points="694.75,716.6895,798.75,716.6895,810.75,728.6895,798.75,740.6895,694.75,740.6895,682.75,728.6895,694.75,716.6895" style="stroke:#181818;stroke-width:0.5;"/><text fill="#000000" font-family="sans-serif" font-size="11" lengthAdjust="spacing" textLength="18" x="750.75" y="751.3242">yes</text><text fill="#000000" font-family="sans-serif" font-size="11" lengthAdjust="spacing" textLength="104" x="694.75" y="732.8467">Sign-in successful?</text><text fill="#000000" font-family="sans-serif" font-size="11" lengthAdjust="spacing" textLength="14" x="810.75" y="726.3691">no</text><rect fill="#F1F1F1" height="34.1328" rx="12.5" ry="12.5" style="stroke:#181818;stroke-width:0.5;" width="150" x="993" y="471.0469"/><text fill="#000000" font-family="sans-serif" font-size="12" lengthAdjust="spacing" textLength="130" x="1003" y="492.6484">Display error message</text><rect fill="#F1F1F1" height="34.1328" rx="12.5" ry="12.5" style="stroke:#181818;stroke-width:0.5;" width="226" x="633.75" y="772.8242"/><text fill="#000000" font-family="sans-serif" font-size="12" lengthAdjust="spacing" textLength="206" x="643.75" y="794.4258">Fetch user-specific dashboard data</text><line style="stroke:#000000;stroke-width:1.5;" x1="370" x2="370" y1="49.7852" y2="903.0898"/><line style="stroke:#000000;stroke-width:1.5;" x1="1147" x2="1147" y1="49.7852" y2="903.0898"/><line style="stroke:#181818;stroke-width:1.0;" x1="193.5" x2="193.5" y1="95.9844" y2="115.9844"/><polygon fill="#181818" points="189.5,105.9844,193.5,115.9844,197.5,105.9844,193.5,109.9844" style="stroke:#181818;stroke-width:1.0;"/><line style="stroke:#181818;stroke-width:1.0;" x1="193.5" x2="193.5" y1="164.25" y2="184.25"/><polygon fill="#181818" points="189.5,174.25,193.5,184.25,197.5,174.25,193.5,178.25" style="stroke:#181818;stroke-width:1.0;"/><line style="stroke:#181818;stroke-width:1.0;" x1="106.5" x2="106.5" y1="312.6484" y2="332.6484"/><polygon fill="#181818" points="102.5,322.6484,106.5,332.6484,110.5,322.6484,106.5,326.6484" style="stroke:#181818;stroke-width:1.0;"/><line style="stroke:#181818;stroke-width:1.0;" x1="281" x2="281" y1="312.6484" y2="332.6484"/><polygon fill="#181818" points="277,322.6484,281,332.6484,285,322.6484,281,326.6484" style="stroke:#181818;stroke-width:1.0;"/><line style="stroke:#181818;stroke-width:1.0;" x1="106.5" x2="106.5" y1="366.7813" y2="386.7813"/><polygon fill="#181818" points="102.5,376.7813,106.5,386.7813,110.5,376.7813,106.5,380.7813" style="stroke:#181818;stroke-width:1.0;"/><line style="stroke:#181818;stroke-width:1.0;" x1="281" x2="281" y1="366.7813" y2="386.7813"/><polygon fill="#181818" points="277,376.7813,281,386.7813,285,376.7813,281,380.7813" style="stroke:#181818;stroke-width:1.0;"/><line style="stroke:#181818;stroke-width:1.0;" x1="193.5" x2="193.5" y1="392.7813" y2="412.7813"/><polygon fill="#181818" points="189.5,402.7813,193.5,412.7813,197.5,402.7813,193.5,406.7813" style="stroke:#181818;stroke-width:1.0;"/><line style="stroke:#181818;stroke-width:1.0;" x1="193.5" x2="193.5" y1="286.6484" y2="306.6484"/><polygon fill="#181818" points="189.5,296.6484,193.5,306.6484,197.5,296.6484,193.5,300.6484" style="stroke:#181818;stroke-width:1.0;"/><line style="stroke:#181818;stroke-width:1.0;" x1="193.5" x2="193.5" y1="232.5156" y2="252.5156"/><polygon fill="#181818" points="189.5,242.5156,193.5,252.5156,197.5,242.5156,193.5,246.5156" style="stroke:#181818;stroke-width:1.0;"/><line style="stroke:#181818;stroke-width:1.0;" x1="193.5" x2="193.5" y1="861.0898" y2="881.0898"/><polygon fill="#181818" points="189.5,871.0898,193.5,881.0898,197.5,871.0898,193.5,875.0898" style="stroke:#181818;stroke-width:1.0;"/><line style="stroke:#181818;stroke-width:1.0;" x1="479" x2="469" y1="568.5566" y2="568.5566"/><line style="stroke:#181818;stroke-width:1.0;" x1="469" x2="469" y1="568.5566" y2="590.5566"/><polygon fill="#181818" points="465,580.5566,469,590.5566,473,580.5566,469,584.5566" style="stroke:#181818;stroke-width:1.0;"/><line style="stroke:#181818;stroke-width:1.0;" x1="712" x2="722" y1="568.5566" y2="568.5566"/><line style="stroke:#181818;stroke-width:1.0;" x1="722" x2="722" y1="568.5566" y2="590.5566"/><polygon fill="#181818" points="718,580.5566,722,590.5566,726,580.5566,722,584.5566" style="stroke:#181818;stroke-width:1.0;"/><line style="stroke:#181818;stroke-width:1.0;" x1="469" x2="469" y1="624.6895" y2="642.6895"/><line style="stroke:#181818;stroke-width:1.0;" x1="469" x2="583.5" y1="642.6895" y2="642.6895"/><polygon fill="#181818" points="573.5,638.6895,583.5,642.6895,573.5,646.6895,577.5,642.6895" style="stroke:#181818;stroke-width:1.0;"/><line style="stroke:#181818;stroke-width:1.0;" x1="722" x2="722" y1="624.6895" y2="642.6895"/><line style="stroke:#181818;stroke-width:1.0;" x1="722" x2="607.5" y1="642.6895" y2="642.6895"/><polygon fill="#181818" points="617.5,638.6895,607.5,642.6895,617.5,646.6895,613.5,642.6895" style="stroke:#181818;stroke-width:1.0;"/><line style="stroke:#181818;stroke-width:1.0;" x1="687.75" x2="595.5" y1="534.5566" y2="534.5566"/><line style="stroke:#181818;stroke-width:1.0;" x1="595.5" x2="595.5" y1="534.5566" y2="556.5566"/><polygon fill="#181818" points="591.5,546.5566,595.5,556.5566,599.5,546.5566,595.5,550.5566" style="stroke:#181818;stroke-width:1.0;"/><line style="stroke:#181818;stroke-width:1.0;" x1="805.75" x2="898" y1="534.5566" y2="534.5566"/><line style="stroke:#181818;stroke-width:1.0;" x1="898" x2="898" y1="534.5566" y2="556.5566"/><polygon fill="#181818" points="894,546.5566,898,556.5566,902,546.5566,898,550.5566" style="stroke:#181818;stroke-width:1.0;"/><line style="stroke:#181818;stroke-width:1.0;" x1="595.5" x2="595.5" y1="654.6895" y2="672.6895"/><line style="stroke:#181818;stroke-width:1.0;" x1="595.5" x2="734.75" y1="672.6895" y2="672.6895"/><polygon fill="#181818" points="724.75,668.6895,734.75,672.6895,724.75,676.6895,728.75,672.6895" style="stroke:#181818;stroke-width:1.0;"/><line style="stroke:#181818;stroke-width:1.0;" x1="898" x2="898" y1="590.6895" y2="672.6895"/><line style="stroke:#181818;stroke-width:1.0;" x1="898" x2="758.75" y1="672.6895" y2="672.6895"/><polygon fill="#181818" points="768.75,668.6895,758.75,672.6895,768.75,676.6895,764.75,672.6895" style="stroke:#181818;stroke-width:1.0;"/><line style="stroke:#181818;stroke-width:1.0;" x1="810.75" x2="1068" y1="728.6895" y2="728.6895"/><line style="stroke:#181818;stroke-width:1.0;" x1="1068" x2="1068" y1="505.1797" y2="728.6895"/><polygon fill="#181818" points="1064,515.1797,1068,505.1797,1072,515.1797,1068,511.1797" style="stroke:#181818;stroke-width:1.0;"/><line style="stroke:#181818;stroke-width:1.0;" x1="746.75" x2="746.75" y1="684.6895" y2="716.6895"/><polygon fill="#181818" points="742.75,706.6895,746.75,716.6895,750.75,706.6895,746.75,710.6895" style="stroke:#181818;stroke-width:1.0;"/><line style="stroke:#181818;stroke-width:1.0;" x1="746.75" x2="746.75" y1="740.6895" y2="772.8242"/><polygon fill="#181818" points="742.75,762.8242,746.75,772.8242,750.75,762.8242,746.75,766.8242" style="stroke:#181818;stroke-width:1.0;"/><line style="stroke:#181818;stroke-width:1.0;" x1="193.5" x2="193.5" y1="461.0469" y2="486.8125"/><line style="stroke:#181818;stroke-width:1.0;" x1="193.5" x2="746.75" y1="486.8125" y2="486.8125"/><line style="stroke:#181818;stroke-width:1.0;" x1="746.75" x2="746.75" y1="486.8125" y2="522.5566"/><polygon fill="#181818" points="742.75,512.5566,746.75,522.5566,750.75,512.5566,746.75,516.5566" style="stroke:#181818;stroke-width:1.0;"/><line style="stroke:#181818;stroke-width:1.0;" x1="1068" x2="1068" y1="269.582" y2="471.0469"/><line style="stroke:#181818;stroke-width:1.0;" x1="1068" x2="261.5" y1="269.582" y2="269.582"/><polygon fill="#181818" points="271.5,265.582,261.5,269.582,271.5,273.582,267.5,269.582" style="stroke:#181818;stroke-width:1.0;"/><line style="stroke:#181818;stroke-width:1.0;" x1="746.75" x2="746.75" y1="806.957" y2="811.957"/><line style="stroke:#181818;stroke-width:1.0;" x1="746.75" x2="193.5" y1="811.957" y2="811.957"/><line style="stroke:#181818;stroke-width:1.0;" x1="193.5" x2="193.5" y1="811.957" y2="826.957"/><polygon fill="#181818" points="189.5,816.957,193.5,826.957,197.5,816.957,193.5,820.957" style="stroke:#181818;stroke-width:1.0;"/><text fill="#000000" font-family="sans-serif" font-size="18" lengthAdjust="spacing" textLength="38" x="173.5" y="67.1875">User</text><text fill="#000000" font-family="sans-serif" font-size="18" lengthAdjust="spacing" textLength="34" x="741.5" y="67.1875">App</text><!--MD5=[4ebf0f944ef8ad45a0f40189713b14fb]
@startuml
skinparam titleBorderRoundCorner 10
skinparam titleBorderThickness 3
skinparam titleBorderColor black
title User Sign-in

|User|
start
:The user opens
the web app;
:The user navigates
to the "sign-in" page;
repeat: Fill out sign-in form;
fork
  :Fill out username field;
fork again
  :Fill out password field;
end fork
:The user submits 
the form values;
|App|
partition "Credential validation" {
    if (Username exists?) then (yes)
        if (Password hash matches the username?) then (yes)
            :Display loading indicator;
        else (no)
            :Create error message;
        endif
    else (no)
        :Create error message;
    endif
}
backward :Display error message;
repeat while (Sign-in successful?) is (no) not (yes)
:Fetch user-specific dashboard data;
|User|
:User is redirected to the dashboard;
stop
@enduml

PlantUML version 1.2022.2(Sat Mar 05 17:30:19 CET 2022)
(GPL source distribution)
Java Runtime: OpenJDK Runtime Environment
JVM: OpenJDK 64-Bit Server VM
Default Encoding: UTF-8
Language: en
Country: HU
--></g></svg>