<?xml version="1.0" encoding="UTF-8" standalone="no"?><svg xmlns="http://www.w3.org/2000/svg" xmlns:xlink="http://www.w3.org/1999/xlink" contentStyleType="text/css" height="1287px" preserveAspectRatio="none" style="width:1256px;height:1287px;background:#FFFFFF;" version="1.1" viewBox="0 0 1256 1287" width="1256px" zoomAndPan="magnify"><defs/><g><rect height="26.4883" rx="5" ry="5" style="stroke:#000000;stroke-width:3.0;fill:none;" width="196" x="528.5" y="15"/><text fill="#000000" font-family="sans-serif" font-size="14" font-weight="bold" lengthAdjust="spacing" textLength="186" x="533.5" y="33.5352">Add new Snippet to Topic</text><ellipse cx="331" cy="85.9844" fill="#222222" rx="10" ry="10" style="stroke:#222222;stroke-width:1.0;"/><rect fill="#F1F1F1" height="34.1328" rx="12.5" ry="12.5" style="stroke:#181818;stroke-width:0.5;" width="334" x="164" y="115.9844"/><text fill="#000000" font-family="sans-serif" font-size="12" lengthAdjust="spacing" textLength="314" x="174" y="137.5859">Click the "New Snippet" button of a programming topic</text><rect fill="#555555" height="6" rx="2.5" ry="2.5" style="stroke:#555555;stroke-width:1.0;" width="620" x="21" y="278.3828"/><rect fill="#F1F1F1" height="34.1328" rx="12.5" ry="12.5" style="stroke:#181818;stroke-width:0.5;" width="131" x="33" y="304.3828"/><text fill="#000000" font-family="sans-serif" font-size="12" lengthAdjust="spacing" textLength="111" x="43" y="325.9844">Fill out header field</text><rect fill="#F1F1F1" height="34.1328" rx="12.5" ry="12.5" style="stroke:#181818;stroke-width:0.5;" width="118" x="192" y="304.3828"/><text fill="#000000" font-family="sans-serif" font-size="12" lengthAdjust="spacing" textLength="98" x="202" y="325.9844">Fill out code field</text><rect fill="#F1F1F1" height="34.1328" rx="12.5" ry="12.5" style="stroke:#181818;stroke-width:0.5;" width="109" x="338" y="304.3828"/><text fill="#000000" font-family="sans-serif" font-size="12" lengthAdjust="spacing" textLength="89" x="348" y="325.9844">Select language</text><rect fill="#F1F1F1" height="34.1328" rx="12.5" ry="12.5" style="stroke:#181818;stroke-width:0.5;" width="154" x="475" y="304.3828"/><text fill="#000000" font-family="sans-serif" font-size="12" lengthAdjust="spacing" textLength="134" x="485" y="325.9844">Select language version</text><rect fill="#555555" height="6" rx="2.5" ry="2.5" style="stroke:#555555;stroke-width:1.0;" width="620" x="21" y="358.5156"/><rect fill="#F1F1F1" height="34.1328" rx="12.5" ry="12.5" style="stroke:#181818;stroke-width:0.5;" width="121" x="270.5" y="384.5156"/><text fill="#000000" font-family="sans-serif" font-size="12" lengthAdjust="spacing" textLength="101" x="280.5" y="406.1172">Submit the values</text><rect fill="#F1F1F1" height="34.1328" rx="12.5" ry="12.5" style="stroke:#181818;stroke-width:0.5;" width="170" x="246" y="224.25"/><text fill="#000000" font-family="sans-serif" font-size="12" lengthAdjust="spacing" textLength="146" x="260" y="245.8516">Enter Snippet information</text><rect fill="#F1F1F1" height="34.1328" rx="12.5" ry="12.5" style="stroke:#181818;stroke-width:0.5;" width="290" x="186" y="1199.5117"/><text fill="#000000" font-family="sans-serif" font-size="12" lengthAdjust="spacing" textLength="270" x="196" y="1221.1133">The user sees the new snippet page displayed</text><ellipse cx="331" cy="1264.6445" rx="11" ry="11" style="stroke:#222222;stroke-width:1.0;fill:none;"/><ellipse cx="331" cy="1264.6445" fill="#222222" rx="6" ry="6" style="stroke:#111111;stroke-width:1.0;"/><line style="stroke:#000000;stroke-width:1.5;" x1="15" x2="15" y1="49.7852" y2="1275.6445"/><rect fill="#F1F1F1" height="34.1328" rx="12.5" ry="12.5" style="stroke:#181818;stroke-width:0.5;" width="172" x="768.75" y="170.1172"/><text fill="#000000" font-family="sans-serif" font-size="12" lengthAdjust="spacing" textLength="152" x="778.75" y="191.7188">Display a snippet skeleton</text><rect fill="none" height="385.5762" style="stroke:#000000;stroke-width:1.5;" width="421" x="651" y="428.6484"/><path d="M768,428.6484 L768,438.1367 L758,448.1367 L651,448.1367 " fill="none" style="stroke:#000000;stroke-width:1.5;"/><text fill="#000000" font-family="sans-serif" font-size="14" lengthAdjust="spacing" textLength="107" x="654" y="443.1836">Input validation</text><polygon fill="#F1F1F1" points="798.75,465.1367,910.75,465.1367,922.75,477.1367,910.75,489.1367,798.75,489.1367,786.75,477.1367,798.75,465.1367" style="stroke:#181818;stroke-width:0.5;"/><text fill="#000000" font-family="sans-serif" font-size="11" lengthAdjust="spacing" textLength="112" x="798.75" y="481.2939">Header is not empty?</text><text fill="#000000" font-family="sans-serif" font-size="11" lengthAdjust="spacing" textLength="18" x="768.75" y="474.8164">yes</text><text fill="#000000" font-family="sans-serif" font-size="11" lengthAdjust="spacing" textLength="14" x="922.75" y="474.8164">no</text><rect fill="#F1F1F1" height="34.1328" rx="12.5" ry="12.5" style="stroke:#181818;stroke-width:0.5;" width="164" x="674" y="499.1367"/><text fill="#000000" font-family="sans-serif" font-size="12" lengthAdjust="spacing" textLength="144" x="684" y="520.7383">Use the specified header</text><rect fill="#F1F1F1" height="34.1328" rx="12.5" ry="12.5" style="stroke:#181818;stroke-width:0.5;" width="191" x="858" y="499.1367"/><text fill="#000000" font-family="sans-serif" font-size="12" lengthAdjust="spacing" textLength="171" x="868" y="520.7383">Create header error message</text><polygon fill="#F1F1F1" points="854.75,539.2695,866.75,551.2695,854.75,563.2695,842.75,551.2695,854.75,539.2695" style="stroke:#181818;stroke-width:0.5;"/><polygon fill="#F1F1F1" points="803.75,585.959,905.75,585.959,917.75,597.959,905.75,609.959,803.75,609.959,791.75,597.959,803.75,585.959" style="stroke:#181818;stroke-width:0.5;"/><text fill="#000000" font-family="sans-serif" font-size="11" lengthAdjust="spacing" textLength="102" x="803.75" y="602.1162">Code is not empty?</text><text fill="#000000" font-family="sans-serif" font-size="11" lengthAdjust="spacing" textLength="18" x="773.75" y="595.6387">yes</text><text fill="#000000" font-family="sans-serif" font-size="11" lengthAdjust="spacing" textLength="14" x="917.75" y="595.6387">no</text><rect fill="#F1F1F1" height="34.1328" rx="12.5" ry="12.5" style="stroke:#181818;stroke-width:0.5;" width="151" x="687" y="619.959"/><text fill="#000000" font-family="sans-serif" font-size="12" lengthAdjust="spacing" textLength="131" x="697" y="641.5605">Use the specified code</text><rect fill="#F1F1F1" height="34.1328" rx="12.5" ry="12.5" style="stroke:#181818;stroke-width:0.5;" width="178" x="858" y="619.959"/><text fill="#000000" font-family="sans-serif" font-size="12" lengthAdjust="spacing" textLength="158" x="868" y="641.5605">Create code error message</text><polygon fill="#F1F1F1" points="854.75,660.0918,866.75,672.0918,854.75,684.0918,842.75,672.0918,854.75,660.0918" style="stroke:#181818;stroke-width:0.5;"/><polygon fill="#F1F1F1" points="793.25,704.0918,916.25,704.0918,928.25,716.0918,916.25,728.0918,793.25,728.0918,781.25,716.0918,793.25,704.0918" style="stroke:#181818;stroke-width:0.5;"/><text fill="#000000" font-family="sans-serif" font-size="11" lengthAdjust="spacing" textLength="123" x="793.25" y="720.249">language is not empty?</text><text fill="#000000" font-family="sans-serif" font-size="11" lengthAdjust="spacing" textLength="18" x="763.25" y="713.7715">yes</text><text fill="#000000" font-family="sans-serif" font-size="11" lengthAdjust="spacing" textLength="14" x="928.25" y="713.7715">no</text><rect fill="#F1F1F1" height="34.1328" rx="12.5" ry="12.5" style="stroke:#181818;stroke-width:0.5;" width="175" x="663" y="738.0918"/><text fill="#000000" font-family="sans-serif" font-size="12" lengthAdjust="spacing" textLength="155" x="673" y="759.6934">Use the specified language</text><rect fill="#F1F1F1" height="34.1328" rx="12.5" ry="12.5" style="stroke:#181818;stroke-width:0.5;" width="202" x="858" y="738.0918"/><text fill="#000000" font-family="sans-serif" font-size="12" lengthAdjust="spacing" textLength="182" x="868" y="759.6934">Create language error message</text><polygon fill="#F1F1F1" points="854.75,778.2246,866.75,790.2246,854.75,802.2246,842.75,790.2246,854.75,778.2246" style="stroke:#181818;stroke-width:0.5;"/><polygon fill="#F1F1F1" points="783.75,834.2246,925.75,834.2246,937.75,846.2246,925.75,858.2246,783.75,858.2246,771.75,846.2246,783.75,834.2246" style="stroke:#181818;stroke-width:0.5;"/><text fill="#000000" font-family="sans-serif" font-size="11" lengthAdjust="spacing" textLength="18" x="858.75" y="868.8594">yes</text><text fill="#000000" font-family="sans-serif" font-size="11" lengthAdjust="spacing" textLength="142" x="783.75" y="850.3818">Topic creation successful?</text><text fill="#000000" font-family="sans-serif" font-size="11" lengthAdjust="spacing" textLength="14" x="937.75" y="843.9043">no</text><rect fill="#F1F1F1" height="34.1328" rx="12.5" ry="12.5" style="stroke:#181818;stroke-width:0.5;" width="150" x="1082" y="521.8262"/><text fill="#000000" font-family="sans-serif" font-size="12" lengthAdjust="spacing" textLength="130" x="1092" y="543.4277">Display error message</text><rect fill="#F1F1F1" height="34.1328" rx="12.5" ry="12.5" style="stroke:#181818;stroke-width:0.5;" width="162" x="773.75" y="890.3594"/><text fill="#000000" font-family="sans-serif" font-size="12" lengthAdjust="spacing" textLength="142" x="783.75" y="911.9609">Display loading indicator</text><rect fill="none" height="190.8867" style="stroke:#000000;stroke-width:1.5;" width="360" x="674.75" y="934.4922"/><path d="M784.75,934.4922 L784.75,943.9805 L774.75,953.9805 L674.75,953.9805 " fill="none" style="stroke:#000000;stroke-width:1.5;"/><text fill="#000000" font-family="sans-serif" font-size="14" lengthAdjust="spacing" textLength="100" x="677.75" y="949.0273">Persist snippet</text><rect fill="#F1F1F1" height="34.1328" rx="12.5" ry="12.5" style="stroke:#181818;stroke-width:0.5;" width="309" x="700.25" y="970.9805"/><text fill="#000000" font-family="sans-serif" font-size="12" lengthAdjust="spacing" textLength="84" x="710.25" y="992.582">Auto-generate</text><text fill="#000000" font-family="sans-serif" font-size="12" font-style="italic" lengthAdjust="spacing" textLength="12" x="798.25" y="992.582">ID</text><text fill="#000000" font-family="sans-serif" font-size="12" lengthAdjust="spacing" textLength="4" x="810.25" y="992.582">,</text><text fill="#000000" font-family="sans-serif" font-size="12" font-style="italic" lengthAdjust="spacing" textLength="61" x="818.25" y="992.582">created_at</text><text fill="#000000" font-family="sans-serif" font-size="12" lengthAdjust="spacing" textLength="4" x="879.25" y="992.582">,</text><text fill="#000000" font-family="sans-serif" font-size="12" font-style="italic" lengthAdjust="spacing" textLength="77" x="887.25" y="992.582">last_modified</text><text fill="#000000" font-family="sans-serif" font-size="12" lengthAdjust="spacing" textLength="31" x="968.25" y="992.582">fields</text><rect fill="#F1F1F1" height="34.1328" rx="12.5" ry="12.5" style="stroke:#181818;stroke-width:0.5;" width="182" x="763.75" y="1025.1133"/><text fill="#000000" font-family="sans-serif" font-size="12" lengthAdjust="spacing" textLength="162" x="773.75" y="1046.7148">Insert snippet into database</text><rect fill="#F1F1F1" height="34.1328" rx="12.5" ry="12.5" style="stroke:#181818;stroke-width:0.5;" width="340" x="684.75" y="1079.2461"/><text fill="#000000" font-family="sans-serif" font-size="12" lengthAdjust="spacing" textLength="320" x="694.75" y="1100.8477">Create relationship to topic and programming language</text><rect fill="#F1F1F1" height="34.1328" rx="12.5" ry="12.5" style="stroke:#181818;stroke-width:0.5;" width="265" x="722.25" y="1145.3789"/><text fill="#000000" font-family="sans-serif" font-size="12" lengthAdjust="spacing" textLength="245" x="732.25" y="1166.9805">Render the new snippet on the dashboard</text><line style="stroke:#000000;stroke-width:1.5;" x1="645" x2="645" y1="49.7852" y2="1275.6445"/><line style="stroke:#000000;stroke-width:1.5;" x1="1236" x2="1236" y1="49.7852" y2="1275.6445"/><line style="stroke:#181818;stroke-width:1.0;" x1="331" x2="331" y1="95.9844" y2="115.9844"/><polygon fill="#181818" points="327,105.9844,331,115.9844,335,105.9844,331,109.9844" style="stroke:#181818;stroke-width:1.0;"/><line style="stroke:#181818;stroke-width:1.0;" x1="98.5" x2="98.5" y1="284.3828" y2="304.3828"/><polygon fill="#181818" points="94.5,294.3828,98.5,304.3828,102.5,294.3828,98.5,298.3828" style="stroke:#181818;stroke-width:1.0;"/><line style="stroke:#181818;stroke-width:1.0;" x1="251" x2="251" y1="284.3828" y2="304.3828"/><polygon fill="#181818" points="247,294.3828,251,304.3828,255,294.3828,251,298.3828" style="stroke:#181818;stroke-width:1.0;"/><line style="stroke:#181818;stroke-width:1.0;" x1="392.5" x2="392.5" y1="284.3828" y2="304.3828"/><polygon fill="#181818" points="388.5,294.3828,392.5,304.3828,396.5,294.3828,392.5,298.3828" style="stroke:#181818;stroke-width:1.0;"/><line style="stroke:#181818;stroke-width:1.0;" x1="552" x2="552" y1="284.3828" y2="304.3828"/><polygon fill="#181818" points="548,294.3828,552,304.3828,556,294.3828,552,298.3828" style="stroke:#181818;stroke-width:1.0;"/><line style="stroke:#181818;stroke-width:1.0;" x1="98.5" x2="98.5" y1="338.5156" y2="358.5156"/><polygon fill="#181818" points="94.5,348.5156,98.5,358.5156,102.5,348.5156,98.5,352.5156" style="stroke:#181818;stroke-width:1.0;"/><line style="stroke:#181818;stroke-width:1.0;" x1="251" x2="251" y1="338.5156" y2="358.5156"/><polygon fill="#181818" points="247,348.5156,251,358.5156,255,348.5156,251,352.5156" style="stroke:#181818;stroke-width:1.0;"/><line style="stroke:#181818;stroke-width:1.0;" x1="392.5" x2="392.5" y1="338.5156" y2="358.5156"/><polygon fill="#181818" points="388.5,348.5156,392.5,358.5156,396.5,348.5156,392.5,352.5156" style="stroke:#181818;stroke-width:1.0;"/><line style="stroke:#181818;stroke-width:1.0;" x1="552" x2="552" y1="338.5156" y2="358.5156"/><polygon fill="#181818" points="548,348.5156,552,358.5156,556,348.5156,552,352.5156" style="stroke:#181818;stroke-width:1.0;"/><line style="stroke:#181818;stroke-width:1.0;" x1="331" x2="331" y1="364.5156" y2="384.5156"/><polygon fill="#181818" points="327,374.5156,331,384.5156,335,374.5156,331,378.5156" style="stroke:#181818;stroke-width:1.0;"/><line style="stroke:#181818;stroke-width:1.0;" x1="331" x2="331" y1="258.3828" y2="278.3828"/><polygon fill="#181818" points="327,268.3828,331,278.3828,335,268.3828,331,272.3828" style="stroke:#181818;stroke-width:1.0;"/><line style="stroke:#181818;stroke-width:1.0;" x1="331" x2="331" y1="1233.6445" y2="1253.6445"/><polygon fill="#181818" points="327,1243.6445,331,1253.6445,335,1243.6445,331,1247.6445" style="stroke:#181818;stroke-width:1.0;"/><line style="stroke:#181818;stroke-width:1.0;" x1="786.75" x2="756" y1="477.1367" y2="477.1367"/><line style="stroke:#181818;stroke-width:1.0;" x1="756" x2="756" y1="477.1367" y2="499.1367"/><polygon fill="#181818" points="752,489.1367,756,499.1367,760,489.1367,756,493.1367" style="stroke:#181818;stroke-width:1.0;"/><line style="stroke:#181818;stroke-width:1.0;" x1="922.75" x2="953.5" y1="477.1367" y2="477.1367"/><line style="stroke:#181818;stroke-width:1.0;" x1="953.5" x2="953.5" y1="477.1367" y2="499.1367"/><polygon fill="#181818" points="949.5,489.1367,953.5,499.1367,957.5,489.1367,953.5,493.1367" style="stroke:#181818;stroke-width:1.0;"/><line style="stroke:#181818;stroke-width:1.0;" x1="756" x2="756" y1="533.2695" y2="551.2695"/><line style="stroke:#181818;stroke-width:1.0;" x1="756" x2="842.75" y1="551.2695" y2="551.2695"/><polygon fill="#181818" points="832.75,547.2695,842.75,551.2695,832.75,555.2695,836.75,551.2695" style="stroke:#181818;stroke-width:1.0;"/><line style="stroke:#181818;stroke-width:1.0;" x1="953.5" x2="953.5" y1="533.2695" y2="551.2695"/><line style="stroke:#181818;stroke-width:1.0;" x1="953.5" x2="866.75" y1="551.2695" y2="551.2695"/><polygon fill="#181818" points="876.75,547.2695,866.75,551.2695,876.75,555.2695,872.75,551.2695" style="stroke:#181818;stroke-width:1.0;"/><line style="stroke:#181818;stroke-width:1.0;" x1="791.75" x2="762.5" y1="597.959" y2="597.959"/><line style="stroke:#181818;stroke-width:1.0;" x1="762.5" x2="762.5" y1="597.959" y2="619.959"/><polygon fill="#181818" points="758.5,609.959,762.5,619.959,766.5,609.959,762.5,613.959" style="stroke:#181818;stroke-width:1.0;"/><line style="stroke:#181818;stroke-width:1.0;" x1="917.75" x2="947" y1="597.959" y2="597.959"/><line style="stroke:#181818;stroke-width:1.0;" x1="947" x2="947" y1="597.959" y2="619.959"/><polygon fill="#181818" points="943,609.959,947,619.959,951,609.959,947,613.959" style="stroke:#181818;stroke-width:1.0;"/><line style="stroke:#181818;stroke-width:1.0;" x1="762.5" x2="762.5" y1="654.0918" y2="672.0918"/><line style="stroke:#181818;stroke-width:1.0;" x1="762.5" x2="842.75" y1="672.0918" y2="672.0918"/><polygon fill="#181818" points="832.75,668.0918,842.75,672.0918,832.75,676.0918,836.75,672.0918" style="stroke:#181818;stroke-width:1.0;"/><line style="stroke:#181818;stroke-width:1.0;" x1="947" x2="947" y1="654.0918" y2="672.0918"/><line style="stroke:#181818;stroke-width:1.0;" x1="947" x2="866.75" y1="672.0918" y2="672.0918"/><polygon fill="#181818" points="876.75,668.0918,866.75,672.0918,876.75,676.0918,872.75,672.0918" style="stroke:#181818;stroke-width:1.0;"/><line style="stroke:#181818;stroke-width:1.0;" x1="854.75" x2="854.75" y1="563.2695" y2="585.959"/><polygon fill="#181818" points="850.75,575.959,854.75,585.959,858.75,575.959,854.75,579.959" style="stroke:#181818;stroke-width:1.0;"/><line style="stroke:#181818;stroke-width:1.0;" x1="781.25" x2="750.5" y1="716.0918" y2="716.0918"/><line style="stroke:#181818;stroke-width:1.0;" x1="750.5" x2="750.5" y1="716.0918" y2="738.0918"/><polygon fill="#181818" points="746.5,728.0918,750.5,738.0918,754.5,728.0918,750.5,732.0918" style="stroke:#181818;stroke-width:1.0;"/><line style="stroke:#181818;stroke-width:1.0;" x1="928.25" x2="959" y1="716.0918" y2="716.0918"/><line style="stroke:#181818;stroke-width:1.0;" x1="959" x2="959" y1="716.0918" y2="738.0918"/><polygon fill="#181818" points="955,728.0918,959,738.0918,963,728.0918,959,732.0918" style="stroke:#181818;stroke-width:1.0;"/><line style="stroke:#181818;stroke-width:1.0;" x1="750.5" x2="750.5" y1="772.2246" y2="790.2246"/><line style="stroke:#181818;stroke-width:1.0;" x1="750.5" x2="842.75" y1="790.2246" y2="790.2246"/><polygon fill="#181818" points="832.75,786.2246,842.75,790.2246,832.75,794.2246,836.75,790.2246" style="stroke:#181818;stroke-width:1.0;"/><line style="stroke:#181818;stroke-width:1.0;" x1="959" x2="959" y1="772.2246" y2="790.2246"/><line style="stroke:#181818;stroke-width:1.0;" x1="959" x2="866.75" y1="790.2246" y2="790.2246"/><polygon fill="#181818" points="876.75,786.2246,866.75,790.2246,876.75,794.2246,872.75,790.2246" style="stroke:#181818;stroke-width:1.0;"/><line style="stroke:#181818;stroke-width:1.0;" x1="854.75" x2="854.75" y1="684.0918" y2="704.0918"/><polygon fill="#181818" points="850.75,694.0918,854.75,704.0918,858.75,694.0918,854.75,698.0918" style="stroke:#181818;stroke-width:1.0;"/><line style="stroke:#181818;stroke-width:1.0;" x1="937.75" x2="1157" y1="846.2246" y2="846.2246"/><line style="stroke:#181818;stroke-width:1.0;" x1="1157" x2="1157" y1="555.959" y2="846.2246"/><polygon fill="#181818" points="1153,565.959,1157,555.959,1161,565.959,1157,561.959" style="stroke:#181818;stroke-width:1.0;"/><line style="stroke:#181818;stroke-width:1.0;" x1="854.75" x2="854.75" y1="802.2246" y2="834.2246"/><polygon fill="#181818" points="850.75,824.2246,854.75,834.2246,858.75,824.2246,854.75,828.2246" style="stroke:#181818;stroke-width:1.0;"/><line style="stroke:#181818;stroke-width:1.0;" x1="854.75" x2="854.75" y1="858.2246" y2="890.3594"/><polygon fill="#181818" points="850.75,880.3594,854.75,890.3594,858.75,880.3594,854.75,884.3594" style="stroke:#181818;stroke-width:1.0;"/><line style="stroke:#181818;stroke-width:1.0;" x1="854.75" x2="854.75" y1="1005.1133" y2="1025.1133"/><polygon fill="#181818" points="850.75,1015.1133,854.75,1025.1133,858.75,1015.1133,854.75,1019.1133" style="stroke:#181818;stroke-width:1.0;"/><line style="stroke:#181818;stroke-width:1.0;" x1="854.75" x2="854.75" y1="1059.2461" y2="1079.2461"/><polygon fill="#181818" points="850.75,1069.2461,854.75,1079.2461,858.75,1069.2461,854.75,1073.2461" style="stroke:#181818;stroke-width:1.0;"/><line style="stroke:#181818;stroke-width:1.0;" x1="854.75" x2="854.75" y1="924.4922" y2="970.9805"/><polygon fill="#181818" points="850.75,960.9805,854.75,970.9805,858.75,960.9805,854.75,964.9805" style="stroke:#181818;stroke-width:1.0;"/><line style="stroke:#181818;stroke-width:1.0;" x1="854.75" x2="854.75" y1="1113.3789" y2="1145.3789"/><polygon fill="#181818" points="850.75,1135.3789,854.75,1145.3789,858.75,1135.3789,854.75,1139.3789" style="stroke:#181818;stroke-width:1.0;"/><line style="stroke:#181818;stroke-width:1.0;" x1="331" x2="331" y1="150.1172" y2="155.1172"/><line style="stroke:#181818;stroke-width:1.0;" x1="331" x2="854.75" y1="155.1172" y2="155.1172"/><line style="stroke:#181818;stroke-width:1.0;" x1="854.75" x2="854.75" y1="155.1172" y2="170.1172"/><polygon fill="#181818" points="850.75,160.1172,854.75,170.1172,858.75,160.1172,854.75,164.1172" style="stroke:#181818;stroke-width:1.0;"/><line style="stroke:#181818;stroke-width:1.0;" x1="331" x2="331" y1="418.6484" y2="429.3926"/><line style="stroke:#181818;stroke-width:1.0;" x1="331" x2="854.75" y1="429.3926" y2="429.3926"/><line style="stroke:#181818;stroke-width:1.0;" x1="854.75" x2="854.75" y1="429.3926" y2="465.1367"/><polygon fill="#181818" points="850.75,455.1367,854.75,465.1367,858.75,455.1367,854.75,459.1367" style="stroke:#181818;stroke-width:1.0;"/><line style="stroke:#181818;stroke-width:1.0;" x1="1157" x2="1157" y1="241.3164" y2="521.8262"/><line style="stroke:#181818;stroke-width:1.0;" x1="1157" x2="416" y1="241.3164" y2="241.3164"/><polygon fill="#181818" points="426,237.3164,416,241.3164,426,245.3164,422,241.3164" style="stroke:#181818;stroke-width:1.0;"/><line style="stroke:#181818;stroke-width:1.0;" x1="854.75" x2="854.75" y1="204.25" y2="209.25"/><line style="stroke:#181818;stroke-width:1.0;" x1="854.75" x2="331" y1="209.25" y2="209.25"/><line style="stroke:#181818;stroke-width:1.0;" x1="331" x2="331" y1="209.25" y2="224.25"/><polygon fill="#181818" points="327,214.25,331,224.25,335,214.25,331,218.25" style="stroke:#181818;stroke-width:1.0;"/><line style="stroke:#181818;stroke-width:1.0;" x1="854.75" x2="854.75" y1="1179.5117" y2="1184.5117"/><line style="stroke:#181818;stroke-width:1.0;" x1="854.75" x2="331" y1="1184.5117" y2="1184.5117"/><line style="stroke:#181818;stroke-width:1.0;" x1="331" x2="331" y1="1184.5117" y2="1199.5117"/><polygon fill="#181818" points="327,1189.5117,331,1199.5117,335,1189.5117,331,1193.5117" style="stroke:#181818;stroke-width:1.0;"/><text fill="#000000" font-family="sans-serif" font-size="18" lengthAdjust="spacing" textLength="38" x="311" y="67.1875">User</text><text fill="#000000" font-family="sans-serif" font-size="18" lengthAdjust="spacing" textLength="34" x="923.5" y="67.1875">App</text><!--MD5=[3178bf49fa976a5fd90133c33c977d28]
@startuml
skinparam titleBorderRoundCorner 10
skinparam titleBorderThickness 3
skinparam titleBorderColor black
title Add new Snippet to Topic

|User|
start
:Click the "New Snippet" button of a programming topic;

|App|
:Display a snippet skeleton;

|User|
repeat: Enter Snippet information;
fork
  :Fill out header field;
fork again
  :Fill out code field;
fork again
  :Select language;
fork again
  :Select language version;
end fork
:Submit the values;

|App|
partition "Input validation" {
    if (Header is not empty?) then (yes)
        :Use the specified header;
    else (no)
        :Create header error message;
    endif
    if (Code is not empty?) then (yes)
        :Use the specified code;
    else (no)
        :Create code error message;
    endif
    if (language is not empty?) then (yes)
        :Use the specified language;
    else (no)
        :Create language error message;
    endif
}

backward :Display error message;
repeat while (Topic creation successful?) is (no) not (yes)
:Display loading indicator;

partition "Persist snippet" {
    :Auto-generate //ID//, //created_at//, //last_modified// fields;
    :Insert snippet into database;
    :Create relationship to topic and programming language;
}
:Render the new snippet on the dashboard;

|User|
:The user sees the new snippet page displayed;
stop
@enduml

PlantUML version 1.2022.2(Sat Mar 05 17:30:19 CET 2022)
(GPL source distribution)
Java Runtime: OpenJDK Runtime Environment
JVM: OpenJDK 64-Bit Server VM
Default Encoding: UTF-8
Language: en
Country: HU
--></g></svg>