<?xml version="1.0" encoding="UTF-8" standalone="no"?><svg xmlns="http://www.w3.org/2000/svg" xmlns:xlink="http://www.w3.org/1999/xlink" contentStyleType="text/css" height="1120px" preserveAspectRatio="none" style="width:1852px;height:1120px;background:#FFFFFF;" version="1.1" viewBox="0 0 1852 1120" width="1852px" zoomAndPan="magnify"><defs/><g><rect height="26.4883" rx="5" ry="5" style="stroke:#000000;stroke-width:3.0;fill:none;" width="105" x="872" y="15"/><text fill="#000000" font-family="sans-serif" font-size="14" font-weight="bold" lengthAdjust="spacing" textLength="95" x="877" y="33.5352">User Sign-up</text><ellipse cx="374.5" cy="85.9844" fill="#222222" rx="10" ry="10" style="stroke:#222222;stroke-width:1.0;"/><rect fill="#F1F1F1" height="48.2656" rx="12.5" ry="12.5" style="stroke:#181818;stroke-width:0.5;" width="110" x="319.5" y="115.9844"/><text fill="#000000" font-family="sans-serif" font-size="12" lengthAdjust="spacing" textLength="90" x="329.5" y="137.5859">The user opens</text><text fill="#000000" font-family="sans-serif" font-size="12" lengthAdjust="spacing" textLength="73" x="329.5" y="151.7188">the web app</text><rect fill="#F1F1F1" height="48.2656" rx="12.5" ry="12.5" style="stroke:#181818;stroke-width:0.5;" width="143" x="303" y="184.25"/><text fill="#000000" font-family="sans-serif" font-size="12" lengthAdjust="spacing" textLength="109" x="313" y="205.8516">The user navigates</text><text fill="#000000" font-family="sans-serif" font-size="12" lengthAdjust="spacing" textLength="123" x="313" y="219.9844">to the "sign-up" page</text><rect fill="#555555" height="6" rx="2.5" ry="2.5" style="stroke:#555555;stroke-width:1.0;" width="710" x="21" y="306.6484"/><rect fill="#F1F1F1" height="34.1328" rx="12.5" ry="12.5" style="stroke:#181818;stroke-width:0.5;" width="147" x="33" y="332.6484"/><text fill="#000000" font-family="sans-serif" font-size="12" lengthAdjust="spacing" textLength="127" x="43" y="354.25">Fill out username field</text><rect fill="#F1F1F1" height="34.1328" rx="12.5" ry="12.5" style="stroke:#181818;stroke-width:0.5;" width="121" x="190" y="332.6484"/><text fill="#000000" font-family="sans-serif" font-size="12" lengthAdjust="spacing" textLength="101" x="200" y="354.25">Fill out email field</text><rect fill="#F1F1F1" height="34.1328" rx="12.5" ry="12.5" style="stroke:#181818;stroke-width:0.5;" width="146" x="339" y="332.6484"/><text fill="#000000" font-family="sans-serif" font-size="12" lengthAdjust="spacing" textLength="126" x="349" y="354.25">Fill out password field</text><rect fill="#F1F1F1" height="34.1328" rx="12.5" ry="12.5" style="stroke:#181818;stroke-width:0.5;" width="221" x="498" y="332.6484"/><text fill="#000000" font-family="sans-serif" font-size="12" lengthAdjust="spacing" textLength="201" x="508" y="354.25">Fill out password confirmation field</text><rect fill="#555555" height="6" rx="2.5" ry="2.5" style="stroke:#555555;stroke-width:1.0;" width="710" x="21" y="386.7813"/><rect fill="#F1F1F1" height="48.2656" rx="12.5" ry="12.5" style="stroke:#181818;stroke-width:0.5;" width="120" x="314.5" y="412.7813"/><text fill="#000000" font-family="sans-serif" font-size="12" lengthAdjust="spacing" textLength="100" x="324.5" y="434.3828">The user submits</text><text fill="#000000" font-family="sans-serif" font-size="12" lengthAdjust="spacing" textLength="89" x="324.5" y="448.5156">the form values</text><rect fill="#F1F1F1" height="34.1328" rx="12.5" ry="12.5" style="stroke:#181818;stroke-width:0.5;" width="141" x="304" y="252.5156"/><text fill="#000000" font-family="sans-serif" font-size="12" lengthAdjust="spacing" textLength="117" x="318" y="274.1172">Fill out sign-up form</text><rect fill="#F1F1F1" height="34.1328" rx="12.5" ry="12.5" style="stroke:#181818;stroke-width:0.5;" width="227" x="261" y="1032.5566"/><text fill="#000000" font-family="sans-serif" font-size="12" lengthAdjust="spacing" textLength="207" x="271" y="1054.1582">User is redirected to the dashboard</text><ellipse cx="374.5" cy="1097.6895" rx="11" ry="11" style="stroke:#222222;stroke-width:1.0;fill:none;"/><ellipse cx="374.5" cy="1097.6895" fill="#222222" rx="6" ry="6" style="stroke:#111111;stroke-width:1.0;"/><line style="stroke:#000000;stroke-width:1.5;" x1="15" x2="15" y1="49.7852" y2="1108.6895"/><rect fill="none" height="338.6211" style="stroke:#000000;stroke-width:1.5;" width="927" x="741" y="471.0469"/><path d="M858,471.0469 L858,480.5352 L848,490.5352 L741,490.5352 " fill="none" style="stroke:#000000;stroke-width:1.5;"/><text fill="#000000" font-family="sans-serif" font-size="14" lengthAdjust="spacing" textLength="107" x="744" y="485.582">Form validation</text><polygon fill="#F1F1F1" points="1346.1875,507.5352,1484.1875,507.5352,1496.1875,519.5352,1484.1875,531.5352,1346.1875,531.5352,1334.1875,519.5352,1346.1875,507.5352" style="stroke:#181818;stroke-width:0.5;"/><text fill="#000000" font-family="sans-serif" font-size="11" lengthAdjust="spacing" textLength="138" x="1346.1875" y="523.6924">Username format is valid?</text><text fill="#000000" font-family="sans-serif" font-size="11" lengthAdjust="spacing" textLength="18" x="1316.1875" y="517.2148">yes</text><text fill="#000000" font-family="sans-serif" font-size="11" lengthAdjust="spacing" textLength="14" x="1496.1875" y="517.2148">no</text><polygon fill="#F1F1F1" points="1191.375,541.5352,1303.375,541.5352,1315.375,553.5352,1303.375,565.5352,1191.375,565.5352,1179.375,553.5352,1191.375,541.5352" style="stroke:#181818;stroke-width:0.5;"/><text fill="#000000" font-family="sans-serif" font-size="11" lengthAdjust="spacing" textLength="112" x="1191.375" y="557.6924">Email format is valid?</text><text fill="#000000" font-family="sans-serif" font-size="11" lengthAdjust="spacing" textLength="18" x="1161.375" y="551.2148">yes</text><text fill="#000000" font-family="sans-serif" font-size="11" lengthAdjust="spacing" textLength="14" x="1315.375" y="551.2148">no</text><polygon fill="#F1F1F1" points="984.75,575.5352,1190.75,575.5352,1202.75,587.5352,1190.75,599.5352,984.75,599.5352,972.75,587.5352,984.75,575.5352" style="stroke:#181818;stroke-width:0.5;"/><text fill="#000000" font-family="sans-serif" font-size="11" lengthAdjust="spacing" textLength="206" x="984.75" y="591.6924">Username and email are non-existent?</text><text fill="#000000" font-family="sans-serif" font-size="11" lengthAdjust="spacing" textLength="18" x="954.75" y="585.2148">yes</text><text fill="#000000" font-family="sans-serif" font-size="11" lengthAdjust="spacing" textLength="14" x="1202.75" y="585.2148">no</text><polygon fill="#F1F1F1" points="856,609.5352,1033,609.5352,1045,621.5352,1033,633.5352,856,633.5352,844,621.5352,856,609.5352" style="stroke:#181818;stroke-width:0.5;"/><text fill="#000000" font-family="sans-serif" font-size="11" lengthAdjust="spacing" textLength="177" x="856" y="625.6924">password matches confirmation?</text><text fill="#000000" font-family="sans-serif" font-size="11" lengthAdjust="spacing" textLength="18" x="826" y="619.2148">yes</text><text fill="#000000" font-family="sans-serif" font-size="11" lengthAdjust="spacing" textLength="14" x="1045" y="619.2148">no</text><rect fill="#F1F1F1" height="34.1328" rx="12.5" ry="12.5" style="stroke:#181818;stroke-width:0.5;" width="162" x="753" y="643.5352"/><text fill="#000000" font-family="sans-serif" font-size="12" lengthAdjust="spacing" textLength="142" x="763" y="665.1367">Display loading indicator</text><rect fill="#F1F1F1" height="34.1328" rx="12.5" ry="12.5" style="stroke:#181818;stroke-width:0.5;" width="146" x="982" y="643.5352"/><text fill="#000000" font-family="sans-serif" font-size="12" lengthAdjust="spacing" textLength="126" x="992" y="665.1367">Create error message</text><polygon fill="#F1F1F1" points="944.5,683.668,956.5,695.668,944.5,707.668,932.5,695.668,944.5,683.668" style="stroke:#181818;stroke-width:0.5;"/><rect fill="#F1F1F1" height="34.1328" rx="12.5" ry="12.5" style="stroke:#181818;stroke-width:0.5;" width="146" x="1158" y="609.5352"/><text fill="#000000" font-family="sans-serif" font-size="12" lengthAdjust="spacing" textLength="126" x="1168" y="631.1367">Create error message</text><polygon fill="#F1F1F1" points="1087.75,713.668,1099.75,725.668,1087.75,737.668,1075.75,725.668,1087.75,713.668" style="stroke:#181818;stroke-width:0.5;"/><rect fill="#F1F1F1" height="34.1328" rx="12.5" ry="12.5" style="stroke:#181818;stroke-width:0.5;" width="146" x="1334" y="575.5352"/><text fill="#000000" font-family="sans-serif" font-size="12" lengthAdjust="spacing" textLength="126" x="1344" y="597.1367">Create error message</text><polygon fill="#F1F1F1" points="1247.375,743.668,1259.375,755.668,1247.375,767.668,1235.375,755.668,1247.375,743.668" style="stroke:#181818;stroke-width:0.5;"/><rect fill="#F1F1F1" height="34.1328" rx="12.5" ry="12.5" style="stroke:#181818;stroke-width:0.5;" width="146" x="1510" y="541.5352"/><text fill="#000000" font-family="sans-serif" font-size="12" lengthAdjust="spacing" textLength="126" x="1520" y="563.1367">Create error message</text><polygon fill="#F1F1F1" points="1415.1875,773.668,1427.1875,785.668,1415.1875,797.668,1403.1875,785.668,1415.1875,773.668" style="stroke:#181818;stroke-width:0.5;"/><polygon fill="#F1F1F1" points="1399.6875,829.668,1430.6875,829.668,1442.6875,841.668,1430.6875,853.668,1399.6875,853.668,1387.6875,841.668,1399.6875,829.668" style="stroke:#181818;stroke-width:0.5;"/><text fill="#000000" font-family="sans-serif" font-size="11" lengthAdjust="spacing" textLength="18" x="1419.1875" y="864.3027">yes</text><text fill="#000000" font-family="sans-serif" font-size="11" lengthAdjust="spacing" textLength="31" x="1399.6875" y="845.8252">Valid?</text><text fill="#000000" font-family="sans-serif" font-size="11" lengthAdjust="spacing" textLength="14" x="1442.6875" y="839.3477">no</text><rect fill="#F1F1F1" height="34.1328" rx="12.5" ry="12.5" style="stroke:#181818;stroke-width:0.5;" width="150" x="1678" y="520.0254"/><text fill="#000000" font-family="sans-serif" font-size="12" lengthAdjust="spacing" textLength="130" x="1688" y="541.627">Display error message</text><rect fill="none" height="136.7539" style="stroke:#000000;stroke-width:1.5;" width="184" x="1323.1875" y="875.8027"/><path d="M1423.1875,875.8027 L1423.1875,885.291 L1413.1875,895.291 L1323.1875,895.291 " fill="none" style="stroke:#000000;stroke-width:1.5;"/><text fill="#000000" font-family="sans-serif" font-size="14" lengthAdjust="spacing" textLength="90" x="1326.1875" y="890.3379">Register user</text><rect fill="#F1F1F1" height="34.1328" rx="12.5" ry="12.5" style="stroke:#181818;stroke-width:0.5;" width="149" x="1340.6875" y="912.291"/><text fill="#000000" font-family="sans-serif" font-size="12" lengthAdjust="spacing" textLength="129" x="1350.6875" y="933.8926">Auto-generate user ID</text><rect fill="#F1F1F1" height="34.1328" rx="12.5" ry="12.5" style="stroke:#181818;stroke-width:0.5;" width="164" x="1333.1875" y="966.4238"/><text fill="#000000" font-family="sans-serif" font-size="12" lengthAdjust="spacing" textLength="144" x="1343.1875" y="988.0254">Insert user into database</text><line style="stroke:#000000;stroke-width:1.5;" x1="735" x2="735" y1="49.7852" y2="1108.6895"/><line style="stroke:#000000;stroke-width:1.5;" x1="1832" x2="1832" y1="49.7852" y2="1108.6895"/><line style="stroke:#181818;stroke-width:1.0;" x1="374.5" x2="374.5" y1="95.9844" y2="115.9844"/><polygon fill="#181818" points="370.5,105.9844,374.5,115.9844,378.5,105.9844,374.5,109.9844" style="stroke:#181818;stroke-width:1.0;"/><line style="stroke:#181818;stroke-width:1.0;" x1="374.5" x2="374.5" y1="164.25" y2="184.25"/><polygon fill="#181818" points="370.5,174.25,374.5,184.25,378.5,174.25,374.5,178.25" style="stroke:#181818;stroke-width:1.0;"/><line style="stroke:#181818;stroke-width:1.0;" x1="106.5" x2="106.5" y1="312.6484" y2="332.6484"/><polygon fill="#181818" points="102.5,322.6484,106.5,332.6484,110.5,322.6484,106.5,326.6484" style="stroke:#181818;stroke-width:1.0;"/><line style="stroke:#181818;stroke-width:1.0;" x1="250.5" x2="250.5" y1="312.6484" y2="332.6484"/><polygon fill="#181818" points="246.5,322.6484,250.5,332.6484,254.5,322.6484,250.5,326.6484" style="stroke:#181818;stroke-width:1.0;"/><line style="stroke:#181818;stroke-width:1.0;" x1="412" x2="412" y1="312.6484" y2="332.6484"/><polygon fill="#181818" points="408,322.6484,412,332.6484,416,322.6484,412,326.6484" style="stroke:#181818;stroke-width:1.0;"/><line style="stroke:#181818;stroke-width:1.0;" x1="608.5" x2="608.5" y1="312.6484" y2="332.6484"/><polygon fill="#181818" points="604.5,322.6484,608.5,332.6484,612.5,322.6484,608.5,326.6484" style="stroke:#181818;stroke-width:1.0;"/><line style="stroke:#181818;stroke-width:1.0;" x1="106.5" x2="106.5" y1="366.7813" y2="386.7813"/><polygon fill="#181818" points="102.5,376.7813,106.5,386.7813,110.5,376.7813,106.5,380.7813" style="stroke:#181818;stroke-width:1.0;"/><line style="stroke:#181818;stroke-width:1.0;" x1="250.5" x2="250.5" y1="366.7813" y2="386.7813"/><polygon fill="#181818" points="246.5,376.7813,250.5,386.7813,254.5,376.7813,250.5,380.7813" style="stroke:#181818;stroke-width:1.0;"/><line style="stroke:#181818;stroke-width:1.0;" x1="412" x2="412" y1="366.7813" y2="386.7813"/><polygon fill="#181818" points="408,376.7813,412,386.7813,416,376.7813,412,380.7813" style="stroke:#181818;stroke-width:1.0;"/><line style="stroke:#181818;stroke-width:1.0;" x1="608.5" x2="608.5" y1="366.7813" y2="386.7813"/><polygon fill="#181818" points="604.5,376.7813,608.5,386.7813,612.5,376.7813,608.5,380.7813" style="stroke:#181818;stroke-width:1.0;"/><line style="stroke:#181818;stroke-width:1.0;" x1="374.5" x2="374.5" y1="392.7813" y2="412.7813"/><polygon fill="#181818" points="370.5,402.7813,374.5,412.7813,378.5,402.7813,374.5,406.7813" style="stroke:#181818;stroke-width:1.0;"/><line style="stroke:#181818;stroke-width:1.0;" x1="374.5" x2="374.5" y1="286.6484" y2="306.6484"/><polygon fill="#181818" points="370.5,296.6484,374.5,306.6484,378.5,296.6484,374.5,300.6484" style="stroke:#181818;stroke-width:1.0;"/><line style="stroke:#181818;stroke-width:1.0;" x1="374.5" x2="374.5" y1="232.5156" y2="252.5156"/><polygon fill="#181818" points="370.5,242.5156,374.5,252.5156,378.5,242.5156,374.5,246.5156" style="stroke:#181818;stroke-width:1.0;"/><line style="stroke:#181818;stroke-width:1.0;" x1="374.5" x2="374.5" y1="1066.6895" y2="1086.6895"/><polygon fill="#181818" points="370.5,1076.6895,374.5,1086.6895,378.5,1076.6895,374.5,1080.6895" style="stroke:#181818;stroke-width:1.0;"/><line style="stroke:#181818;stroke-width:1.0;" x1="844" x2="834" y1="621.5352" y2="621.5352"/><line style="stroke:#181818;stroke-width:1.0;" x1="834" x2="834" y1="621.5352" y2="643.5352"/><polygon fill="#181818" points="830,633.5352,834,643.5352,838,633.5352,834,637.5352" style="stroke:#181818;stroke-width:1.0;"/><line style="stroke:#181818;stroke-width:1.0;" x1="1045" x2="1055" y1="621.5352" y2="621.5352"/><line style="stroke:#181818;stroke-width:1.0;" x1="1055" x2="1055" y1="621.5352" y2="643.5352"/><polygon fill="#181818" points="1051,633.5352,1055,643.5352,1059,633.5352,1055,637.5352" style="stroke:#181818;stroke-width:1.0;"/><line style="stroke:#181818;stroke-width:1.0;" x1="834" x2="834" y1="677.668" y2="695.668"/><line style="stroke:#181818;stroke-width:1.0;" x1="834" x2="932.5" y1="695.668" y2="695.668"/><polygon fill="#181818" points="922.5,691.668,932.5,695.668,922.5,699.668,926.5,695.668" style="stroke:#181818;stroke-width:1.0;"/><line style="stroke:#181818;stroke-width:1.0;" x1="1055" x2="1055" y1="677.668" y2="695.668"/><line style="stroke:#181818;stroke-width:1.0;" x1="1055" x2="956.5" y1="695.668" y2="695.668"/><polygon fill="#181818" points="966.5,691.668,956.5,695.668,966.5,699.668,962.5,695.668" style="stroke:#181818;stroke-width:1.0;"/><line style="stroke:#181818;stroke-width:1.0;" x1="972.75" x2="944.5" y1="587.5352" y2="587.5352"/><line style="stroke:#181818;stroke-width:1.0;" x1="944.5" x2="944.5" y1="587.5352" y2="609.5352"/><polygon fill="#181818" points="940.5,599.5352,944.5,609.5352,948.5,599.5352,944.5,603.5352" style="stroke:#181818;stroke-width:1.0;"/><line style="stroke:#181818;stroke-width:1.0;" x1="1202.75" x2="1231" y1="587.5352" y2="587.5352"/><line style="stroke:#181818;stroke-width:1.0;" x1="1231" x2="1231" y1="587.5352" y2="609.5352"/><polygon fill="#181818" points="1227,599.5352,1231,609.5352,1235,599.5352,1231,603.5352" style="stroke:#181818;stroke-width:1.0;"/><line style="stroke:#181818;stroke-width:1.0;" x1="944.5" x2="944.5" y1="707.668" y2="725.668"/><line style="stroke:#181818;stroke-width:1.0;" x1="944.5" x2="1075.75" y1="725.668" y2="725.668"/><polygon fill="#181818" points="1065.75,721.668,1075.75,725.668,1065.75,729.668,1069.75,725.668" style="stroke:#181818;stroke-width:1.0;"/><line style="stroke:#181818;stroke-width:1.0;" x1="1231" x2="1231" y1="643.668" y2="725.668"/><line style="stroke:#181818;stroke-width:1.0;" x1="1231" x2="1099.75" y1="725.668" y2="725.668"/><polygon fill="#181818" points="1109.75,721.668,1099.75,725.668,1109.75,729.668,1105.75,725.668" style="stroke:#181818;stroke-width:1.0;"/><line style="stroke:#181818;stroke-width:1.0;" x1="1179.375" x2="1087.75" y1="553.5352" y2="553.5352"/><line style="stroke:#181818;stroke-width:1.0;" x1="1087.75" x2="1087.75" y1="553.5352" y2="575.5352"/><polygon fill="#181818" points="1083.75,565.5352,1087.75,575.5352,1091.75,565.5352,1087.75,569.5352" style="stroke:#181818;stroke-width:1.0;"/><line style="stroke:#181818;stroke-width:1.0;" x1="1315.375" x2="1407" y1="553.5352" y2="553.5352"/><line style="stroke:#181818;stroke-width:1.0;" x1="1407" x2="1407" y1="553.5352" y2="575.5352"/><polygon fill="#181818" points="1403,565.5352,1407,575.5352,1411,565.5352,1407,569.5352" style="stroke:#181818;stroke-width:1.0;"/><line style="stroke:#181818;stroke-width:1.0;" x1="1087.75" x2="1087.75" y1="737.668" y2="755.668"/><line style="stroke:#181818;stroke-width:1.0;" x1="1087.75" x2="1235.375" y1="755.668" y2="755.668"/><polygon fill="#181818" points="1225.375,751.668,1235.375,755.668,1225.375,759.668,1229.375,755.668" style="stroke:#181818;stroke-width:1.0;"/><line style="stroke:#181818;stroke-width:1.0;" x1="1407" x2="1407" y1="609.668" y2="755.668"/><line style="stroke:#181818;stroke-width:1.0;" x1="1407" x2="1259.375" y1="755.668" y2="755.668"/><polygon fill="#181818" points="1269.375,751.668,1259.375,755.668,1269.375,759.668,1265.375,755.668" style="stroke:#181818;stroke-width:1.0;"/><line style="stroke:#181818;stroke-width:1.0;" x1="1334.1875" x2="1247.375" y1="519.5352" y2="519.5352"/><line style="stroke:#181818;stroke-width:1.0;" x1="1247.375" x2="1247.375" y1="519.5352" y2="541.5352"/><polygon fill="#181818" points="1243.375,531.5352,1247.375,541.5352,1251.375,531.5352,1247.375,535.5352" style="stroke:#181818;stroke-width:1.0;"/><line style="stroke:#181818;stroke-width:1.0;" x1="1496.1875" x2="1583" y1="519.5352" y2="519.5352"/><line style="stroke:#181818;stroke-width:1.0;" x1="1583" x2="1583" y1="519.5352" y2="541.5352"/><polygon fill="#181818" points="1579,531.5352,1583,541.5352,1587,531.5352,1583,535.5352" style="stroke:#181818;stroke-width:1.0;"/><line style="stroke:#181818;stroke-width:1.0;" x1="1247.375" x2="1247.375" y1="767.668" y2="785.668"/><line style="stroke:#181818;stroke-width:1.0;" x1="1247.375" x2="1403.1875" y1="785.668" y2="785.668"/><polygon fill="#181818" points="1393.1875,781.668,1403.1875,785.668,1393.1875,789.668,1397.1875,785.668" style="stroke:#181818;stroke-width:1.0;"/><line style="stroke:#181818;stroke-width:1.0;" x1="1583" x2="1583" y1="575.668" y2="785.668"/><line style="stroke:#181818;stroke-width:1.0;" x1="1583" x2="1427.1875" y1="785.668" y2="785.668"/><polygon fill="#181818" points="1437.1875,781.668,1427.1875,785.668,1437.1875,789.668,1433.1875,785.668" style="stroke:#181818;stroke-width:1.0;"/><line style="stroke:#181818;stroke-width:1.0;" x1="1442.6875" x2="1753" y1="841.668" y2="841.668"/><line style="stroke:#181818;stroke-width:1.0;" x1="1753" x2="1753" y1="554.1582" y2="841.668"/><polygon fill="#181818" points="1749,564.1582,1753,554.1582,1757,564.1582,1753,560.1582" style="stroke:#181818;stroke-width:1.0;"/><line style="stroke:#181818;stroke-width:1.0;" x1="1415.1875" x2="1415.1875" y1="797.668" y2="829.668"/><polygon fill="#181818" points="1411.1875,819.668,1415.1875,829.668,1419.1875,819.668,1415.1875,823.668" style="stroke:#181818;stroke-width:1.0;"/><line style="stroke:#181818;stroke-width:1.0;" x1="1415.1875" x2="1415.1875" y1="946.4238" y2="966.4238"/><polygon fill="#181818" points="1411.1875,956.4238,1415.1875,966.4238,1419.1875,956.4238,1415.1875,960.4238" style="stroke:#181818;stroke-width:1.0;"/><line style="stroke:#181818;stroke-width:1.0;" x1="1415.1875" x2="1415.1875" y1="853.668" y2="912.291"/><polygon fill="#181818" points="1411.1875,902.291,1415.1875,912.291,1419.1875,902.291,1415.1875,906.291" style="stroke:#181818;stroke-width:1.0;"/><line style="stroke:#181818;stroke-width:1.0;" x1="374.5" x2="374.5" y1="461.0469" y2="471.791"/><line style="stroke:#181818;stroke-width:1.0;" x1="374.5" x2="1415.1875" y1="471.791" y2="471.791"/><line style="stroke:#181818;stroke-width:1.0;" x1="1415.1875" x2="1415.1875" y1="471.791" y2="507.5352"/><polygon fill="#181818" points="1411.1875,497.5352,1415.1875,507.5352,1419.1875,497.5352,1415.1875,501.5352" style="stroke:#181818;stroke-width:1.0;"/><line style="stroke:#181818;stroke-width:1.0;" x1="1753" x2="1753" y1="269.582" y2="520.0254"/><line style="stroke:#181818;stroke-width:1.0;" x1="1753" x2="445" y1="269.582" y2="269.582"/><polygon fill="#181818" points="455,265.582,445,269.582,455,273.582,451,269.582" style="stroke:#181818;stroke-width:1.0;"/><line style="stroke:#181818;stroke-width:1.0;" x1="1415.1875" x2="1415.1875" y1="1000.5566" y2="1017.5566"/><line style="stroke:#181818;stroke-width:1.0;" x1="1415.1875" x2="374.5" y1="1017.5566" y2="1017.5566"/><line style="stroke:#181818;stroke-width:1.0;" x1="374.5" x2="374.5" y1="1017.5566" y2="1032.5566"/><polygon fill="#181818" points="370.5,1022.5566,374.5,1032.5566,378.5,1022.5566,374.5,1026.5566" style="stroke:#181818;stroke-width:1.0;"/><text fill="#000000" font-family="sans-serif" font-size="18" lengthAdjust="spacing" textLength="38" x="356" y="67.1875">User</text><text fill="#000000" font-family="sans-serif" font-size="18" lengthAdjust="spacing" textLength="34" x="1266.5" y="67.1875">App</text><!--MD5=[a3263abe89c3926958ea4ed3f229cc71]
@startuml
skinparam titleBorderRoundCorner 10
skinparam titleBorderThickness 3
skinparam titleBorderColor black
title User Sign-up

|User|
start
:The user opens
the web app;
:The user navigates
to the "sign-up" page;
repeat: Fill out sign-up form;
fork
  :Fill out username field;
fork again
  :Fill out email field;
fork again
  :Fill out password field;
fork again
  :Fill out password confirmation field;
end fork
:The user submits 
the form values;
|App|
partition "Form validation" {
    if (Username format is valid?) then (yes)
        if (Email format is valid?) then (yes)
            if (Username and email are non-existent?) then (yes)
                if (password matches confirmation?) then (yes)
                    :Display loading indicator;
                else (no)
                    :Create error message;
                endif
            else (no)
                :Create error message;
            endif
        else (no)
            :Create error message;
        endif
    else (no)
        :Create error message;
    endif
}
backward :Display error message;
repeat while (Valid?) is (no) not (yes)
partition "Register user" {
    :Auto-generate user ID;
    :Insert user into database;
}
|User|
:User is redirected to the dashboard;
stop
@enduml

PlantUML version 1.2022.2(Sat Mar 05 17:30:19 CET 2022)
(GPL source distribution)
Java Runtime: OpenJDK Runtime Environment
JVM: OpenJDK 64-Bit Server VM
Default Encoding: UTF-8
Language: en
Country: HU
--></g></svg>