<?xml version="1.0" encoding="UTF-8" standalone="no"?><svg xmlns="http://www.w3.org/2000/svg" xmlns:xlink="http://www.w3.org/1999/xlink" contentStyleType="text/css" height="757px" preserveAspectRatio="none" style="width:752px;height:757px;background:#FFFFFF;" version="1.1" viewBox="0 0 752 757" width="752px" zoomAndPan="magnify"><defs/><g><rect height="26.4883" rx="5" ry="5" style="stroke:#000000;stroke-width:3.0;fill:none;" width="135" x="307" y="15"/><text fill="#000000" font-family="sans-serif" font-size="14" font-weight="bold" lengthAdjust="spacing" textLength="125" x="312" y="33.5352">Add Tag to Topic</text><ellipse cx="120" cy="85.9844" fill="#222222" rx="10" ry="10" style="stroke:#222222;stroke-width:1.0;"/><rect fill="#F1F1F1" height="48.2656" rx="12.5" ry="12.5" style="stroke:#181818;stroke-width:0.5;" width="198" x="21" y="115.9844"/><text fill="#000000" font-family="sans-serif" font-size="12" lengthAdjust="spacing" textLength="178" x="31" y="137.5859">Click the "Add Tag" button of a</text><text fill="#000000" font-family="sans-serif" font-size="12" lengthAdjust="spacing" textLength="110" x="31" y="151.7188">programming topic</text><rect fill="#F1F1F1" height="34.1328" rx="12.5" ry="12.5" style="stroke:#181818;stroke-width:0.5;" width="150" x="45" y="292.5156"/><text fill="#000000" font-family="sans-serif" font-size="12" lengthAdjust="spacing" textLength="130" x="55" y="314.1172">Choose preferred tags</text><rect fill="#F1F1F1" height="34.1328" rx="12.5" ry="12.5" style="stroke:#181818;stroke-width:0.5;" width="134" x="53" y="346.6484"/><text fill="#000000" font-family="sans-serif" font-size="12" lengthAdjust="spacing" textLength="114" x="63" y="368.25">Press "Done" button</text><rect fill="#F1F1F1" height="48.2656" rx="12.5" ry="12.5" style="stroke:#181818;stroke-width:0.5;" width="182" x="29" y="655.4453"/><text fill="#000000" font-family="sans-serif" font-size="12" lengthAdjust="spacing" textLength="162" x="39" y="677.0469">The user sees the topic with</text><text fill="#000000" font-family="sans-serif" font-size="12" lengthAdjust="spacing" textLength="153" x="39" y="691.1797">tags according to selection</text><ellipse cx="120" cy="734.7109" rx="11" ry="11" style="stroke:#222222;stroke-width:1.0;fill:none;"/><ellipse cx="120" cy="734.7109" fill="#222222" rx="6" ry="6" style="stroke:#111111;stroke-width:1.0;"/><line style="stroke:#000000;stroke-width:1.5;" x1="15" x2="15" y1="49.7852" y2="745.7109"/><rect fill="#F1F1F1" height="34.1328" rx="12.5" ry="12.5" style="stroke:#181818;stroke-width:0.5;" width="312" x="336.75" y="184.25"/><text fill="#000000" font-family="sans-serif" font-size="12" lengthAdjust="spacing" textLength="292" x="346.75" y="205.8516">Display a menu with programming topic as header</text><rect fill="#F1F1F1" height="34.1328" rx="12.5" ry="12.5" style="stroke:#181818;stroke-width:0.5;" width="175" x="405.25" y="238.3828"/><text fill="#000000" font-family="sans-serif" font-size="12" lengthAdjust="spacing" textLength="155" x="415.25" y="259.9844">Display all predefined tags</text><polygon fill="#F1F1F1" points="402.25,400.7813,583.25,400.7813,595.25,412.7813,583.25,424.7813,402.25,424.7813,390.25,412.7813,402.25,400.7813" style="stroke:#181818;stroke-width:0.5;"/><text fill="#000000" font-family="sans-serif" font-size="11" lengthAdjust="spacing" textLength="181" x="402.25" y="416.9385">At least one tag has been selected</text><text fill="#000000" font-family="sans-serif" font-size="11" lengthAdjust="spacing" textLength="18" x="372.25" y="410.4609">yes</text><text fill="#000000" font-family="sans-serif" font-size="11" lengthAdjust="spacing" textLength="14" x="595.25" y="410.4609">no</text><rect fill="#F1F1F1" height="34.1328" rx="12.5" ry="12.5" style="stroke:#181818;stroke-width:0.5;" width="162" x="282" y="434.7813"/><text fill="#000000" font-family="sans-serif" font-size="12" lengthAdjust="spacing" textLength="142" x="292" y="456.3828">Display loading indicator</text><rect fill="#F1F1F1" height="34.1328" rx="12.5" ry="12.5" style="stroke:#181818;stroke-width:0.5;" width="268" x="229" y="503.0469"/><text fill="#000000" font-family="sans-serif" font-size="12" lengthAdjust="spacing" textLength="248" x="239" y="524.6484">Persist relationship between topic and tags</text><rect fill="#F1F1F1" height="48.2656" rx="12.5" ry="12.5" style="stroke:#181818;stroke-width:0.5;" width="267" x="229.5" y="557.1797"/><text fill="#000000" font-family="sans-serif" font-size="12" lengthAdjust="spacing" textLength="247" x="239.5" y="578.7813">Close the menu and render the dashboard</text><text fill="#000000" font-family="sans-serif" font-size="12" lengthAdjust="spacing" textLength="174" x="239.5" y="592.9141">with the new tags for the topic</text><rect fill="#F1F1F1" height="48.2656" rx="12.5" ry="12.5" style="stroke:#181818;stroke-width:0.5;" width="211" x="517" y="434.7813"/><text fill="#000000" font-family="sans-serif" font-size="12" lengthAdjust="spacing" textLength="180" x="527" y="456.3828">Close the menu and render the</text><text fill="#000000" font-family="sans-serif" font-size="12" lengthAdjust="spacing" textLength="191" x="527" y="470.5156">dashboard without updating tags</text><polygon fill="#F1F1F1" points="492.75,611.4453,504.75,623.4453,492.75,635.4453,480.75,623.4453,492.75,611.4453" style="stroke:#181818;stroke-width:0.5;"/><line style="stroke:#000000;stroke-width:1.5;" x1="223" x2="223" y1="49.7852" y2="745.7109"/><line style="stroke:#000000;stroke-width:1.5;" x1="732" x2="732" y1="49.7852" y2="745.7109"/><line style="stroke:#181818;stroke-width:1.0;" x1="120" x2="120" y1="95.9844" y2="115.9844"/><polygon fill="#181818" points="116,105.9844,120,115.9844,124,105.9844,120,109.9844" style="stroke:#181818;stroke-width:1.0;"/><line style="stroke:#181818;stroke-width:1.0;" x1="120" x2="120" y1="326.6484" y2="346.6484"/><polygon fill="#181818" points="116,336.6484,120,346.6484,124,336.6484,120,340.6484" style="stroke:#181818;stroke-width:1.0;"/><line style="stroke:#181818;stroke-width:1.0;" x1="120" x2="120" y1="703.7109" y2="723.7109"/><polygon fill="#181818" points="116,713.7109,120,723.7109,124,713.7109,120,717.7109" style="stroke:#181818;stroke-width:1.0;"/><line style="stroke:#181818;stroke-width:1.0;" x1="492.75" x2="492.75" y1="218.3828" y2="238.3828"/><polygon fill="#181818" points="488.75,228.3828,492.75,238.3828,496.75,228.3828,492.75,232.3828" style="stroke:#181818;stroke-width:1.0;"/><line style="stroke:#181818;stroke-width:1.0;" x1="363" x2="363" y1="468.9141" y2="503.0469"/><polygon fill="#181818" points="359,493.0469,363,503.0469,367,493.0469,363,497.0469" style="stroke:#181818;stroke-width:1.0;"/><line style="stroke:#181818;stroke-width:1.0;" x1="363" x2="363" y1="537.1797" y2="557.1797"/><polygon fill="#181818" points="359,547.1797,363,557.1797,367,547.1797,363,551.1797" style="stroke:#181818;stroke-width:1.0;"/><line style="stroke:#181818;stroke-width:1.0;" x1="390.25" x2="363" y1="412.7813" y2="412.7813"/><line style="stroke:#181818;stroke-width:1.0;" x1="363" x2="363" y1="412.7813" y2="434.7813"/><polygon fill="#181818" points="359,424.7813,363,434.7813,367,424.7813,363,428.7813" style="stroke:#181818;stroke-width:1.0;"/><line style="stroke:#181818;stroke-width:1.0;" x1="595.25" x2="622.5" y1="412.7813" y2="412.7813"/><line style="stroke:#181818;stroke-width:1.0;" x1="622.5" x2="622.5" y1="412.7813" y2="434.7813"/><polygon fill="#181818" points="618.5,424.7813,622.5,434.7813,626.5,424.7813,622.5,428.7813" style="stroke:#181818;stroke-width:1.0;"/><line style="stroke:#181818;stroke-width:1.0;" x1="363" x2="363" y1="605.4453" y2="623.4453"/><line style="stroke:#181818;stroke-width:1.0;" x1="363" x2="480.75" y1="623.4453" y2="623.4453"/><polygon fill="#181818" points="470.75,619.4453,480.75,623.4453,470.75,627.4453,474.75,623.4453" style="stroke:#181818;stroke-width:1.0;"/><line style="stroke:#181818;stroke-width:1.0;" x1="622.5" x2="622.5" y1="483.0469" y2="623.4453"/><line style="stroke:#181818;stroke-width:1.0;" x1="622.5" x2="504.75" y1="623.4453" y2="623.4453"/><polygon fill="#181818" points="514.75,619.4453,504.75,623.4453,514.75,627.4453,510.75,623.4453" style="stroke:#181818;stroke-width:1.0;"/><line style="stroke:#181818;stroke-width:1.0;" x1="120" x2="120" y1="164.25" y2="169.25"/><line style="stroke:#181818;stroke-width:1.0;" x1="120" x2="492.75" y1="169.25" y2="169.25"/><line style="stroke:#181818;stroke-width:1.0;" x1="492.75" x2="492.75" y1="169.25" y2="184.25"/><polygon fill="#181818" points="488.75,174.25,492.75,184.25,496.75,174.25,492.75,178.25" style="stroke:#181818;stroke-width:1.0;"/><line style="stroke:#181818;stroke-width:1.0;" x1="492.75" x2="492.75" y1="272.5156" y2="277.5156"/><line style="stroke:#181818;stroke-width:1.0;" x1="492.75" x2="120" y1="277.5156" y2="277.5156"/><line style="stroke:#181818;stroke-width:1.0;" x1="120" x2="120" y1="277.5156" y2="292.5156"/><polygon fill="#181818" points="116,282.5156,120,292.5156,124,282.5156,120,286.5156" style="stroke:#181818;stroke-width:1.0;"/><line style="stroke:#181818;stroke-width:1.0;" x1="120" x2="120" y1="380.7813" y2="385.7813"/><line style="stroke:#181818;stroke-width:1.0;" x1="120" x2="492.75" y1="385.7813" y2="385.7813"/><line style="stroke:#181818;stroke-width:1.0;" x1="492.75" x2="492.75" y1="385.7813" y2="400.7813"/><polygon fill="#181818" points="488.75,390.7813,492.75,400.7813,496.75,390.7813,492.75,394.7813" style="stroke:#181818;stroke-width:1.0;"/><line style="stroke:#181818;stroke-width:1.0;" x1="492.75" x2="492.75" y1="635.4453" y2="640.4453"/><line style="stroke:#181818;stroke-width:1.0;" x1="492.75" x2="120" y1="640.4453" y2="640.4453"/><line style="stroke:#181818;stroke-width:1.0;" x1="120" x2="120" y1="640.4453" y2="655.4453"/><polygon fill="#181818" points="116,645.4453,120,655.4453,124,645.4453,120,649.4453" style="stroke:#181818;stroke-width:1.0;"/><text fill="#000000" font-family="sans-serif" font-size="18" lengthAdjust="spacing" textLength="38" x="100" y="67.1875">User</text><text fill="#000000" font-family="sans-serif" font-size="18" lengthAdjust="spacing" textLength="34" x="460.5" y="67.1875">App</text><!--MD5=[655c9047844067dbcd769a77ee8c7224]
@startuml
skinparam titleBorderRoundCorner 10
skinparam titleBorderThickness 3
skinparam titleBorderColor black
title Add Tag to Topic

|User|
start
:Click the "Add Tag" button of a 
programming topic;

|App|
:Display a menu with programming topic as header;
:Display all predefined tags;

|User|
:Choose preferred tags;
:Press "Done" button;

|App|

if (At least one tag has been selected) then (yes)
    :Display loading indicator;
    :Persist relationship between topic and tags;
    :Close the menu and render the dashboard
    with the new tags for the topic;
else (no)
    :Close the menu and render the
    dashboard without updating tags;
endif

|User|
:The user sees the topic with 
tags according to selection;
stop
@enduml

PlantUML version 1.2022.2(Sat Mar 05 17:30:19 CET 2022)
(GPL source distribution)
Java Runtime: OpenJDK Runtime Environment
JVM: OpenJDK 64-Bit Server VM
Default Encoding: UTF-8
Language: en
Country: HU
--></g></svg>